<?xml version="1.0" encoding="UTF-8" standalone="no"?>
<!-- Created with Inkscape (http://www.inkscape.org/) -->
<svg width="400mm" height="400mm" viewBox="0 0 400 400" version="1.1" id="svg5" inkscape:version="1.1.2 (0a00cf5339, 2022-02-04)" sodipodi:docname="star_wolf.svg" xmlns:inkscape="http://www.inkscape.org/namespaces/inkscape" xmlns:sodipodi="http://sodipodi.sourceforge.net/DTD/sodipodi-0.dtd" xmlns:xlink="http://www.w3.org/1999/xlink" xmlns="http://www.w3.org/2000/svg" xmlns:svg="http://www.w3.org/2000/svg">
  <sodipodi:namedview id="namedview7" pagecolor="#ffffff" bordercolor="#000000" borderopacity="0.25" inkscape:pageshadow="2" inkscape:pageopacity="0.0" inkscape:pagecheckerboard="0" inkscape:document-units="mm" showgrid="false" width="400mm" height="400mm" inkscape:zoom="0.41" inkscape:cx="325.60976" inkscape:cy="691.46341" inkscape:window-width="1920" inkscape:window-height="1016" inkscape:window-x="0" inkscape:window-y="0" inkscape:window-maximized="1" inkscape:current-layer="layer4"/>
  <defs id="defs2"/>
  <g inkscape:label="Layer 1" inkscape:groupmode="layer" id="layer1" style="display:inline">
    <ellipse style="fill:#f4c430;fill-opacity:1;stroke-width:6.55259;paint-order:markers stroke fill" id="path907" cx="193.83597" cy="205.20172" rx="148.1884" ry="150.48732"/>
  </g>
  <g inkscape:groupmode="layer" id="layer2" inkscape:label="Layer 2">
    <g id="star" style="fill:#800000" transform="matrix(125.35155,0,0,121.81202,197.03979,208.98779)">
      <g id="cone" style="fill:#800000">
        <polygon id="triangle" style="fill:#800000" points="0.5,1 0,0 0,1 " transform="matrix(0.95106,0.30902,-0.30902,0.95106,0,-1)"/>
        <use id="use2189" style="fill:#800000" xlink:href="#triangle" transform="scale(-1,1)" height="600" width="900" y="0" x="0"/>
      </g>
      <use id="use2191" style="fill:#800000" xlink:href="#cone" transform="rotate(72.001)" height="600" width="900" y="0" x="0"/>
      <use id="use2193" style="fill:#800000" xlink:href="#cone" transform="rotate(-72.001)" height="600" width="900" y="0" x="0"/>
      <use id="use2195" style="fill:#800000" xlink:href="#cone" transform="rotate(144)" height="600" width="900" y="0" x="0"/>
      <use id="use2197" style="fill:#800000" xlink:href="#cone" transform="rotate(-144)" height="600" width="900" y="0" x="0"/>
    </g>
  </g>
  <g inkscape:groupmode="layer" id="layer4" inkscape:label="Layer 3">
    <path fill="#ffffff" d="m 95.864506,20.145364 c 1.53193,-3.963459 2.86279,-8.011584 4.775724,-11.8136467 1.78065,5.0720627 3.42107,10.2155627 5.7441,15.0759587 1.44198,2.497667 2.82046,5.037667 4.51644,7.379229 1.45256,2.362729 3.51366,4.257146 5.14085,6.492875 1.2356,1.68275 2.65377,3.241146 3.65654,5.082646 3.88673,6.421437 7.49829,13.001626 11.10986,19.581816 0.87577,1.30968 1.75418,2.62466 2.71198,3.87614 -0.37836,-2.19339 -0.97896,-4.34446 -1.36261,-6.53521 -0.25929,-1.87854 -0.56356,-3.74914 -0.80433,-5.627684 2.73579,5.609164 5.19377,11.355914 7.54062,17.139704 0.44186,1.905 0.75936,3.84175 1.143,5.76263 0.35454,2.60085 0.55827,5.21758 0.87313,7.82373 0.59266,3.53483 1.29646,7.05114 2.19075,10.52512 1.05304,3.44488 2.16958,6.871228 3.53483,10.207628 1.15888,2.71992 1.75154,5.63298 2.7305,8.41375 1.16152,2.6035 2.36538,5.18848 3.55865,7.77875 -1.90236,0.70644 -3.92642,1.17475 -5.57477,2.41829 -1.8415,0.90223 -3.11415,2.53206 -4.56671,3.91848 -2.53736,2.52412 -4.36827,5.62769 -6.06161,8.75242 -0.2196,1.36525 -0.3466,2.74372 -0.50535,4.11956 -1.7145,-0.21961 -3.42106,-0.53975 -5.14615,-0.63765 -3.60627,0.44979 -7.22577,0.83873 -10.78706,1.58486 -3.60098,0.76729 -7.28133,1.02658 -10.922,1.52135 0.68527,-2.81517 1.16417,-5.6806 1.89442,-8.48254 1.08214,-2.34421 2.3151,-4.61963 3.43164,-6.95061 1.71186,1.37055 3.63273,2.50032 5.1144,4.13544 1.15094,1.13771 2.27542,2.30188 3.43694,3.429 2.62466,-0.43656 5.20435,-1.21444 7.81843,-1.75948 0.67734,-0.0635 1.10067,-0.62706 1.53988,-1.07685 2.35479,-2.51883 4.78367,-4.96623 7.15169,-7.47183 0.3122,-2.07434 0.33602,-4.18571 0.55298,-6.27327 -0.38894,-5.48217 -1.07421,-10.94053 -1.85473,-16.38036 -0.99748,-4.529668 -2.05846,-9.048748 -3.07975,-13.573118 -0.32279,-1.25413 -0.48154,-2.56117 -0.98425,-3.76238 -0.74084,-1.83092 -1.47638,-3.66183 -2.20398,-5.49539 -0.635,-1.61396 -0.91811,-3.35492 -1.64836,-4.92655 -2.92893,-4.6646 -5.88168,-9.31598 -8.75241,-14.01762 -1.92617,-3.34169 -4.52438,-6.220355 -6.79715,-9.321272 -1.9341,-2.704042 -4.31535,-5.032375 -6.51404,-7.514167 -1.50813,-1.57427 -3.14325,-3.021541 -4.68312,-4.564062 -1.95791,1.547812 -3.963454,3.034771 -5.892274,4.614333 -1.8997,2.071688 -3.65654,4.273021 -5.54302,6.355292 -1.58221,1.68275 -3.17764,3.357562 -4.74927,5.050896 -1.25677,1.59015 -2.2225,3.39725 -3.50044,4.96623 -1.47108,1.37848 -2.93687,2.76225 -4.4397,4.10633 0.45773,-2.34156 0.95514,-4.68048 1.54252,-6.99293 3.71739,-9.64936 7.23371,-19.375443 10.92729,-29.032734 1.19327,-2.659063 2.53206,-5.249334 3.73592,-7.903104 z" id="path119" style="display:inline;opacity:0.272848;fill:#000000;stroke-width:0.264583"/>
    <path d="m 285.39083,23.40503 c 2.32304,-4.85775 3.96345,-10.00125 5.7441,-15.0733127 1.62719,3.2517297 2.84956,6.6727927 4.11694,10.0753337 0.89165,2.592917 2.25423,4.98475 3.384,7.474479 1.21708,2.3495 2.00292,4.886854 2.97127,7.342188 2.41564,6.33677 4.699,12.721166 7.14113,19.049999 0.78052,2.243667 1.88119,4.392085 2.29656,6.746875 0.34927,1.6854 0.78052,3.35492 1.06891,5.0509 -1.14567,-0.99748 -2.22779,-2.06375 -3.35227,-3.08505 -2.08756,-1.68539 -3.0771,-4.29154 -4.83658,-6.265329 -1.50281,-1.5875 -2.99506,-3.182937 -4.49792,-4.770437 -1.88912,-2.082271 -3.64328,-4.283604 -5.54302,-6.355292 -1.92881,-1.579562 -3.937,-3.066521 -5.89227,-4.614333 -2.17752,2.137833 -4.45823,4.175125 -6.44525,6.500812 -3.59833,3.693584 -6.49817,7.971896 -9.6864,12.004149 -1.49754,2.15635 -2.78077,4.45293 -4.18835,6.66485 -1.94998,3.15648 -3.94229,6.2865 -5.91873,9.42711 -1.00277,1.34408 -1.22502,3.04535 -1.76477,4.59052 -0.84931,2.59027 -2.04787,5.05089 -2.93687,7.62529 -0.83609,3.59039 -1.64571,7.18873 -2.46327,10.78441 -0.56621,2.65642 -1.34144,5.275798 -1.59544,7.987778 -0.64294,4.64079 -1.18798,9.29745 -1.51871,13.97 0.21693,2.0902 0.23812,4.20687 0.55827,6.28385 2.54794,2.67229 5.13027,5.31548 7.67027,7.99835 0.40746,0.51329 1.09538,0.53711 1.68275,0.69583 2.34686,0.52123 4.67254,1.12186 7.02204,1.63515 1.66688,-1.44991 3.11415,-3.1565 4.75986,-4.63814 1.29116,-1.00542 2.61673,-1.96321 3.91848,-2.9554 1.12183,2.32569 2.34685,4.60375 3.43429,6.94796 0.7276,2.79929 1.21179,5.66473 1.89177,8.47989 -3.49515,-0.47625 -7.02734,-0.72231 -10.48544,-1.43668 -3.70417,-0.78317 -7.47183,-1.2065 -11.22362,-1.66688 -1.72509,0.0979 -3.43165,0.41804 -5.14348,0.63765 -0.15875,-1.37584 -0.28839,-2.75431 -0.50535,-4.11956 -1.30175,-2.27013 -2.49238,-4.6355 -4.21217,-6.62782 -1.10066,-1.52929 -2.53735,-2.75696 -3.83116,-4.10898 -0.52123,-0.55297 -1.09009,-1.06095 -1.75417,-1.4261 -1.13241,-0.64029 -2.16164,-1.4949 -3.41841,-1.88648 -0.99748,-0.34396 -1.99761,-0.68262 -2.98715,-1.03981 0.81227,-1.74096 1.60602,-3.48986 2.40771,-5.23611 0.55562,-1.24883 1.21179,-2.46062 1.56898,-3.78618 0.78581,-2.667 1.51342,-5.36046 2.6035,-7.92427 3.14589,-7.791978 5.16731,-16.039048 5.91608,-24.407818 0.23019,-3.09298 0.89694,-6.13039 1.53459,-9.15723 2.34688,-5.78114 4.80218,-11.53054 7.538,-17.137058 -0.40746,2.759608 -0.69056,5.545668 -1.34673,8.262938 -0.26723,1.2991 -0.61119,2.58498 -0.81756,3.89731 0.95782,-1.25148 1.83359,-2.56646 2.71198,-3.87614 3.33907,-6.0669 6.65427,-12.152316 10.2235,-18.089566 2.27012,-4.093104 5.37104,-7.635875 8.37671,-11.197167 2.17215,-2.934229 4.04542,-6.066895 5.8234,-9.252479 z" id="path121" style="display:inline;opacity:0.272848;fill:#000000;stroke-width:0.264583"/>
    <path fill="#ffffff" d="m 71.401126,62.894092 c 0.43127,-0.635 0.91017,-1.23825 1.4314,-1.80181 -0.61119,3.88408 -1.26736,7.7761 -1.42082,11.71046 0.381,2.30716 0.66675,4.64608 1.45786,6.858 0.75671,2.86014 1.89706,5.59593 3.10885,8.28939 2.69611,4.88421 5.34723,9.79488 8.05921,14.668498 2.05052,3.10886 4.08781,6.25475 6.61723,9.00113 1.1774,1.12186 2.23308,2.36275 3.31787,3.57187 -2.26747,0.7964 -4.56406,1.51077 -6.81831,2.34421 -1.2065,0.62177 -2.413,1.26471 -3.56129,1.98702 -1.04246,1.07683 -2.07962,2.18543 -2.9845,3.38138 -0.33602,1.36789 -0.74348,2.73314 -0.92604,4.13014 0.80962,4.79425 1.52135,9.70227 3.62214,14.13669 0.80434,1.397 1.24355,3.05064 2.47386,4.16189 0.77258,0.72761 1.397,1.62719 2.25954,2.25161 0.89429,0.11906 1.79388,0.26987 2.69875,0.28575 1.04246,-0.64029 2.10873,-1.25677 3.09033,-1.98438 0.45244,-0.94456 0.77259,-1.94733 1.15359,-2.921 -1.11919,-0.35718 -2.26219,-0.65087 -3.34963,-1.09537 -1.26735,-0.6059 -2.51883,-1.24619 -3.77296,-1.87854 2.76225,-1.06627 5.53509,-2.10609 8.31586,-3.12473 1.651,-0.57944 3.15383,-1.48961 4.746624,-2.19869 -0.42068,2.72785 -1.375834,5.61446 -0.33073,8.31585 0.0952,1.016 -0.0238,2.07169 0.35984,3.04536 0.72231,0.77787 1.83621,1.15623 2.36537,2.1246 0.79111,1.33879 1.77535,2.58763 2.25953,4.08782 -2.17486,-0.71967 -4.3418,-1.73038 -6.683364,-1.59544 -1.9685,0.46831 -3.95817,0.83079 -5.93725,1.2356 -1.87061,0.83609 -3.10356,2.55588 -4.44236,4.03754 -1.51606,1.41023 -3.01889,2.86015 -4.80483,3.92907 -1.65629,1.30704 -3.83646,1.54781 -5.63033,2.6035 -1.54781,0.62441 -2.83369,1.70127 -4.00579,2.86276 -0.33602,0.51858 -0.64559,1.07421 -0.8255,1.66952 0.15081,0.82815 0.35189,1.65365 0.61118,2.45534 0.80434,1.31233 2.37332,1.64306 3.73857,2.06375 3.0771,0.91016 5.89756,2.48443 8.68891,4.04018 -1.53987,0.55298 -3.00037,1.43669 -4.67254,1.51077 -1.69333,0.23548 -3.41048,0.35719 -5.07471,0.78582 -1.87589,0.47095 -3.81264,0.77523 -5.60123,1.53723 -3.21204,1.65893 -4.87891,5.02708 -7.11993,7.69408 -1.30704,1.69333 -2.86279,3.22262 -3.86292,5.13556 -1.26206,2.15371 -2.73315,4.191 -4.30742,6.12775 0.34396,-2.09814 0.62442,-4.20687 1.0213,-6.29179 1.58485,-4.5429 3.32052,-9.04081 5.35516,-13.40379 0.98954,-2.24896 2.06111,-4.46617 3.01096,-6.73365 0.50535,-2.49502 0.8599,-5.01914 1.31233,-7.52475 0.55827,-2.9501 0.34925,-6.00339 1.1139,-8.91646 0.51858,-2.54529 1.20121,-5.06148 1.53194,-7.64116 0.81491,-5.50598 1.68275,-11.00402 2.30981,-16.53381 0.22225,-1.54782 0.33602,-3.10886 0.62442,-4.64609 0.65087,-2.42887 1.31233,-4.85775 1.97114,-7.28662 0.50271,-1.43404 1.55575,-2.6035 2.09815,-4.01638 0.21696,-1.38644 0.50006,-2.76754 0.6006,-4.16719 -0.40746,-1.76477 -0.92339,-3.51102 -1.41552,-5.25462 -1.33615,-2.70933 -2.94481,-5.27579 -4.64079,-7.776098 -0.56092,-0.93398 -1.31233,-1.77536 -1.68275,-2.81253 -1.58221,-4.77572 -3.30465,-9.56204 -3.93435,-14.57854 0.0159,-1.66687 -0.0556,-3.34168 0.0344,-5.00591 0.57415,-1.78329 1.23561,-3.54013 1.87854,-5.29961 1.37054,-2.60347 2.97392,-5.07733 4.56671,-7.55118 z" id="path123" style="display:inline;opacity:0.272848;fill:#000000;stroke-width:0.264583"/>
    <path d="m 318.9056,61.097572 c 1.52135,1.65894 2.52412,3.69887 3.75181,5.57212 0.90488,1.70128 2.03203,3.32582 2.50032,5.22023 0.4895,1.8759 1.45521,3.68036 1.20917,5.67267 0.254,6.30502 -1.50551,12.47775 -3.68035,18.33033 -2.09286,3.302 -4.39738,6.487588 -6.09071,10.022388 -0.49477,1.74625 -1.00804,3.4925 -1.41552,5.2573 0.10054,1.40229 0.38102,2.78871 0.60325,4.17513 0.62177,1.61131 1.91558,2.92364 2.27541,4.64873 0.60325,2.37066 1.32292,4.71487 1.88384,7.09612 0.78845,6.45319 1.6166,12.89844 2.6326,19.31987 0.42601,3.66448 1.397,7.22842 2.11667,10.83734 0.32282,3.06652 0.44185,6.1595 1.08746,9.18369 0.53179,2.37066 0.48152,4.92389 1.6695,7.10406 2.27541,5.02444 4.62756,10.02241 6.47964,15.22677 0.48157,1.45521 1.20917,2.85221 1.39171,4.39208 0.25135,1.72773 0.55033,3.45017 0.8123,5.18054 -1.87593,-2.28864 -3.55868,-4.74133 -5.01124,-7.31573 -1.47637,-2.032 -3.21733,-3.86291 -4.66725,-5.91343 -1.56369,-2.0955 -3.0771,-4.37886 -5.44512,-5.64357 -1.76477,-0.82285 -3.7174,-1.10595 -5.59065,-1.5822 -2.11137,-0.55298 -4.30477,-0.64559 -6.44789,-0.99748 -1.19328,-0.3519 -2.3204,-0.89959 -3.47663,-1.34144 3.00831,-1.69863 6.08542,-3.35492 9.43769,-4.27831 1.15358,-0.27782 2.32566,-0.78582 2.98447,-1.82563 0.25929,-0.80169 0.46038,-1.62719 0.61386,-2.45533 -0.40746,-1.64836 -1.84944,-2.64054 -3.10621,-3.62744 -1.79916,-1.04775 -3.72271,-1.85737 -5.68854,-2.52677 -2.48708,-1.26206 -4.62492,-3.10356 -6.60138,-5.04825 -1.27262,-1.44992 -2.49764,-3.06652 -4.28625,-3.89202 -1.98702,-0.41275 -3.98465,-0.77258 -5.96106,-1.2409 -2.36008,-0.13493 -4.55348,0.86519 -6.73629,1.61396 0.46037,-1.45785 1.36787,-2.69875 2.13251,-4.00579 0.51067,-0.96837 1.52136,-1.4896 2.32569,-2.18017 0.0291,-1.44727 -0.1614,-2.93952 0.44979,-4.29948 0.30427,-2.37331 -0.19844,-4.75191 -0.45773,-7.1067 4.29684,2.11666 8.87148,3.55864 13.31651,5.32077 -1.25677,0.62971 -2.50828,1.27264 -3.77296,1.87854 -1.09008,0.44714 -2.23576,0.73819 -3.35227,1.10067 0.38629,0.96837 0.70379,1.97114 1.15623,2.9157 0.97634,0.72761 2.04258,1.34144 3.08504,1.98173 0.94985,-0.0635 1.96847,-0.0846 2.87337,-0.38364 0.9869,-0.9525 1.92617,-1.96586 2.84428,-2.98715 2.02406,-3.50837 3.54277,-7.33954 4.22804,-11.34533 0.39158,-1.85209 0.7276,-3.7174 1.05039,-5.58536 0.19844,-0.93927 -0.2196,-1.84679 -0.39158,-2.75431 -0.26194,-0.85989 -0.23283,-1.88119 -0.93663,-2.52941 -0.84931,-0.91282 -1.62187,-1.89707 -2.5188,-2.75961 -1.15097,-0.72231 -2.35479,-1.36525 -3.56132,-1.98702 -2.25425,-0.83344 -4.55083,-1.55046 -6.81831,-2.34421 1.5875,-1.94204 3.51366,-3.57449 5.01652,-5.58535 1.79123,-2.13784 3.24644,-4.52438 4.81542,-6.82096 2.70669,-4.804828 5.29431,-9.673168 7.97719,-14.488578 1.73569,-3.52955 2.98714,-7.26811 3.99256,-11.06488 0.25403,-1.47373 0.5424,-2.94481 0.7488,-4.42648 -0.15354,-3.93435 -0.81235,-7.82637 -1.44735,-11.70781 z" id="path125" style="display:inline;opacity:0.272848;fill:#000000;stroke-width:0.264583"/>
    <path fill="#ffffff" d="m 98.867526,80.028512 c 0.42598,-0.79375 0.80168,-1.61925 1.293814,-2.37861 0.63764,2.6379 1.16946,5.30754 1.98173,7.90046 0.62706,1.28588 1.43933,2.47915 2.12725,3.73856 0.4736,0.97632 1.39699,1.5928 2.16428,2.3204 0.30956,0.254 0.61119,0.62706 1.06627,0.54766 3.47398,-0.0714 6.94267,-0.26987 10.40606,-0.53179 1.26736,-0.0873 2.56117,-0.0529 3.78619,-0.4392 0.9181,-0.29369 1.93146,-0.37836 2.74108,-0.94192 0.889,-0.59267 1.75155,-1.22767 2.66436,-1.79123 -0.30692,1.28588 -0.0476,2.74373 -0.83079,3.87879 -0.90488,1.48961 -1.78594,2.99509 -2.68288,4.48998 -1.00806,0.11642 -2.00554,0.29898 -3.01096,0.42598 -2.31246,0.254 -4.68841,-0.16404 -6.96118,0.45244 -1.68805,0.30956 -3.35492,0.74877 -5.05355,0.97102 -3.13795,-0.003 -6.27855,0.0502 -9.413864,-0.0265 -1.05304,-0.7964 -2.10873,-1.60338 -3.08504,-2.48973 -0.34396,-1.32821 -0.69321,-2.67494 -0.86254,-4.03225 0.23547,-1.75948 0.254,-3.58775 1.00277,-5.22817 0.94985,-2.26748 1.40229,-4.73604 2.667,-6.86593 z" id="path127" style="display:inline;opacity:0.272848;fill:#000000;stroke-width:0.264583"/>
    <path d="m 291.61383,77.652552 c 0.78845,1.34144 1.50812,2.73314 2.17752,4.14073 0.70641,2.09021 1.42081,4.17777 2.2013,6.24152 0.33073,1.33879 0.41011,2.7305 0.58738,4.09575 -0.13491,1.22767 -0.50268,2.42094 -0.74081,3.63008 -0.0397,0.48948 -0.508,0.72761 -0.83079,1.02129 -0.80433,0.6059 -1.5531,1.28588 -2.3786,1.86267 -3.14325,0.0767 -6.2918,0.0238 -9.43505,0.0238 -3.00566,-0.37571 -5.92402,-1.50283 -8.99054,-1.32556 -2.02671,0.0979 -4.02166,-0.23019 -6.01398,-0.52123 -1.00541,-1.72241 -2.07433,-3.40783 -3.0427,-5.15144 -0.2884,-1.04246 -0.26194,-2.15371 -0.47096,-3.21733 1.09537,0.65352 2.08227,1.47637 3.19616,2.09814 1.19857,0.381 2.42094,0.75407 3.67242,0.93134 4.32065,0.26987 8.63865,0.63235 12.9672,0.66675 0.91284,-0.4154 1.58221,-1.28852 2.35215,-1.93411 0.89429,-1.16681 1.5055,-2.53206 2.3019,-3.76766 0.58738,-0.87313 0.75671,-1.92352 1.03979,-2.91571 0.53184,-1.94469 0.92606,-3.92377 1.40761,-5.87904 z" id="path129" style="display:inline;opacity:0.272848;fill:#000000;stroke-width:0.264583"/>
    <path fill="#ffffff" d="m 152.72345,78.787612 c 3.99521,2.99773 7.96925,6.09071 12.45659,8.33173 1.22237,0.69321 2.60085,1.16681 3.6195,2.17223 1.65629,1.66687 3.9952,2.32569 5.9055,3.64067 1.27264,0.93133 2.76225,1.4552 4.26243,1.8997 0.54505,0.09 1.0795,-0.1852 1.61925,-0.26193 -0.71966,-4.20952 -1.72773,-8.39259 -1.8362,-12.67884 0.87577,0.86784 1.21179,2.07434 1.69068,3.17236 1.72773,4.20158 3.87879,8.20737 6.09865,12.16554 1.55046,2.35479 3.15383,4.683118 4.55348,7.130518 0.4445,1.69069 0.46302,3.46869 0.80433,5.18583 0.99219,5.08 1.60073,10.22615 1.99761,15.38552 -0.0847,2.40242 -0.21167,4.80219 -0.35455,7.20196 -0.45508,-1.30969 -0.75935,-2.66964 -1.17475,-3.99256 -0.62177,-1.90235 -0.56356,-3.93435 -1.00012,-5.8764 -0.7461,-4.24656 -2.07963,-8.3767 -3.77825,-12.33487 -0.98954,-1.70392 -1.9394,-3.46075 -3.24115,-4.95565 -0.9181,-1.1086 -1.73037,-2.31772 -2.84956,-3.24114 -0.9181,-0.75406 -1.66952,-1.764768 -2.81252,-2.196038 -0.91546,-0.40482 -1.82298,-0.82815 -2.73315,-1.23825 -1.57427,-0.71438 -3.35756,-0.86519 -4.86833,-1.72509 -0.92075,-0.508 -1.89177,-0.92339 -2.79135,-1.46579 -1.15888,-1.15623 -1.61925,-2.92894 -3.05065,-3.82587 -0.91281,-0.60855 -1.7436,-1.33615 -2.7014,-1.87325 -0.9816,0.0635 -2.00554,0.0132 -2.95275,0.29898 -0.79639,0.51593 -1.72772,0.93662 -2.36272,1.63777 -0.0344,1.31498 -0.045,2.63525 0.0159,3.95023 0.19579,1.5531 0.49213,3.09297 0.70379,4.64608 0.75142,0.330728 1.48167,0.717018 2.25158,1.010708 1.53987,-0.25929 3.00302,-0.83609 4.47942,-1.325568 -0.30427,1.254128 -0.30956,2.598208 -0.91016,3.767668 -0.62971,1.31498 -1.14036,2.68817 -1.83092,3.9714 -0.89958,1.33085 -1.82563,2.64848 -2.76754,3.95287 -1.94204,-4.15396 -4.08517,-8.22854 -5.6224,-12.557118 -1.0795,-3.78354 -1.89442,-7.7179 -1.58488,-11.67077 0.0159,-2.78607 0.42601,-5.54302 0.76467,-8.30263 z" id="path131" style="display:inline;opacity:0.272848;fill:#000000;stroke-width:0.264583"/>
    <path d="m 234.88981,81.901762 c 1.38644,-1.03717 2.76489,-2.08757 4.16189,-3.1115 0.5715,4.57729 1.21179,9.2366 0.52652,13.83771 -0.15081,1.95527 -0.79639,3.82322 -1.22237,5.72822 -1.51342,4.487338 -3.75444,8.678338 -5.74675,12.961938 -0.94456,-1.30439 -1.86796,-2.62202 -2.76754,-3.95552 -0.69057,-1.28058 -1.20121,-2.65112 -1.82827,-3.96346 -0.60325,-1.17213 -0.60855,-2.51618 -0.91282,-3.772958 1.39965,0.468318 2.78871,0.989548 4.23334,1.320278 0.80433,-0.20109 1.50812,-0.68528 2.25954,-1.026588 0.29633,-2.85221 0.62441,-5.70441 0.46302,-8.57514 -0.62177,-0.71173 -1.49225,-1.23032 -2.30188,-1.71715 -0.90752,-0.13494 -1.8362,-0.23548 -2.75166,-0.1905 -1.0504,0.7329 -2.07963,1.50019 -3.10092,2.27013 -0.97367,0.99747 -1.48431,2.36537 -2.43152,3.38666 -0.83873,0.51594 -1.74625,0.90488 -2.60615,1.37848 -1.73037,1.02397 -3.80735,1.143 -5.58006,2.06642 -1.26471,0.6694 -2.75696,0.99748 -3.77296,2.063748 -3.03212,2.58234 -5.42396,5.84465 -7.32631,9.32657 -2.07962,4.84452 -3.59833,9.95362 -4.20423,15.20031 -0.21431,2.41035 -1.0927,4.69106 -1.74625,7.00352 -0.14287,-2.39977 -0.26987,-4.79954 -0.35454,-7.20196 0.32279,-4.21746 0.7911,-8.42698 1.48958,-12.6021 0.35719,-1.88913 0.6985,-3.7809 0.92342,-5.69119 0.12171,-0.75935 0.11642,-1.55046 0.38894,-2.27806 1.79916,-3.26761 4.191,-6.175378 5.86316,-9.517068 2.01084,-3.57716 3.79677,-7.27868 5.32871,-11.08604 0.25136,-0.69056 0.63765,-1.32821 1.15094,-1.86266 -0.10848,4.28625 -1.11654,8.46931 -1.83621,12.67618 0.60854,0.082 1.23296,0.44186 1.84944,0.19844 1.15358,-0.40746 2.36802,-0.71702 3.38402,-1.42875 1.57162,-1.03981 3.26231,-1.88119 4.9239,-2.77019 1.06362,-0.5662 1.7727,-1.60866 2.82839,-2.18545 1.77271,-0.96573 3.60892,-1.8124 5.334,-2.85486 1.79917,-1.20388 3.67506,-2.29396 5.38163,-3.62746 z" id="path133" style="display:inline;opacity:0.272848;fill:#000000;stroke-width:0.264583"/>
    <path fill="#ffffff" d="m 104.45288,101.15019 c 2.87337,2.00555 5.62239,4.19365 8.56984,6.096 1.7198,1.05569 3.19353,2.43946 4.73605,3.72534 1.75948,1.51077 3.59304,2.92894 5.3975,4.38679 1.79387,1.36525 3.30729,3.05065 4.93183,4.60904 -1.84944,-0.0582 -3.74385,0.22754 -5.54831,-0.29104 -1.0504,-0.2831 -2.14842,-0.4101 -3.16442,-0.80169 -1.89706,-1.0451 -3.5904,-2.55587 -5.78644,-2.94481 -0.87312,0.30956 -1.73037,0.69321 -2.52941,1.16152 -1.0213,1.43669 -2.06111,2.86277 -3.16177,4.24392 -0.53975,1.34673 -0.67205,2.83104 -1.06098,4.23068 -0.43127,1.42082 -0.15082,2.91571 -0.27782,4.37092 -0.48683,1.32027 -1.06362,2.61408 -1.65628,3.89202 -0.0767,-1.38112 -0.0556,-2.76754 -0.10319,-4.14867 -0.17197,-3.44752 0.25929,-6.88445 0.35718,-10.32933 0.11377,-1.11125 -0.37834,-2.16958 -0.80961,-3.16177 -3.19088,-3.26496 -6.170094,-6.74158 -8.985254,-10.33727 -0.84138,-1.24354 -1.58221,-2.55323 -2.29923,-3.87085 3.21469,1.64306 6.35,3.43958 9.538234,5.13027 0.7911,0.26193 1.651,0.18785 2.4712,0.30162 0.32014,-0.52652 0.6641,-1.03716 0.94456,-1.58485 -0.36248,-1.59809 -1.11389,-3.09827 -1.56368,-4.67784 z" id="path135" style="display:inline;opacity:0.272848;fill:#000000;stroke-width:0.264583"/>
    <path d="m 281.12574,105.63753 c 2.09812,-1.44992 4.09046,-3.05065 6.19652,-4.48734 -0.42598,1.35732 -0.94721,2.68288 -1.41817,4.02696 -0.44979,0.83609 0.47892,1.50548 0.77526,2.22515 0.83079,-0.10054 1.70389,-0.0238 2.5056,-0.29369 3.18558,-1.69862 6.32354,-3.48456 9.53294,-5.13556 -0.762,1.36525 -1.5108,2.74902 -2.41565,4.02696 -2.77283,3.47398 -5.6171,6.90827 -8.7789,10.03829 -0.48151,0.75935 -0.73025,1.66158 -0.94985,2.52942 0.045,2.20397 0.14287,4.40795 0.26723,6.60929 0.17989,2.8866 -0.10848,5.7732 -0.21699,8.65716 -0.67201,-1.28058 -1.33612,-2.57175 -1.90233,-3.89996 -0.13493,-1.25941 0.0821,-2.5347 -0.13229,-3.78618 -0.18785,-1.12713 -0.40746,-2.24896 -0.59266,-3.37609 -0.11113,-0.61118 -0.16669,-1.26735 -0.56092,-1.7727 -0.91019,-1.30175 -1.75948,-2.64848 -2.72256,-3.9079 -0.79904,-0.46831 -1.65629,-0.85196 -2.52675,-1.16152 -2.2675,0.39423 -3.97933,2.00819 -5.96371,3.02683 -1.35731,0.37307 -2.73579,0.66146 -4.10897,0.96044 -1.47109,0.12965 -2.95275,0.0317 -4.42384,0.0503 1.61925,-1.55839 3.13267,-3.24379 4.92919,-4.60904 2.39977,-1.91294 4.79425,-3.83381 7.11464,-5.842 1.64836,-1.49225 3.58511,-2.6035 5.39221,-3.87879 z" id="path137" style="display:inline;opacity:0.272848;fill:#000000;stroke-width:0.264583"/>
    <path fill="#ffffff" d="m 168.43441,106.74613 c 1.2409,2.26484 2.39977,4.572 3.50044,6.90563 0.98425,2.13783 2.22779,4.13808 3.36021,6.19654 0.45773,0.87312 1.10066,1.68275 1.27,2.68287 0.34663,1.68011 0.81756,3.3364 1.10331,5.02709 -0.0503,2.0902 -0.32015,4.1698 -0.43921,6.25739 2.05846,-1.83091 4.44765,-3.48191 5.64356,-6.04308 0.254,-1.12448 0.55298,-2.24102 0.74084,-3.37873 -0.23548,-3.64067 -0.56092,-7.27604 -0.79111,-10.91935 1.60602,4.63285 3.43694,9.19162 5.15673,13.78743 0.56092,1.19063 -0.0132,2.50561 0.17992,3.74915 0.25664,1.77006 0.57944,3.52954 0.83344,5.30225 0.23283,2.28864 0.381,4.58523 0.5662,6.87917 0.62442,5.08529 1.64836,10.17322 1.34673,15.31937 -0.58473,1.99496 -1.44198,3.90525 -2.032,5.90021 -0.32014,1.88912 -0.59531,3.78619 -0.87577,5.6806 0.15875,0.58473 0.75142,0.95782 1.09802,1.44992 1.3044,-1.34938 2.5109,-2.80723 3.4925,-4.40531 0.58473,-1.64836 1.07157,-3.33375 1.62187,-4.99269 0.37307,1.25148 1.03717,2.51619 0.78582,3.85498 -0.20373,1.6166 -0.1905,3.26496 -0.48684,4.86833 -0.76729,1.69334 -1.64041,3.3364 -2.43152,5.01915 -0.37835,0.74083 -0.65617,1.56633 -1.27526,2.15106 -1.96057,2.01613 -3.93965,4.01638 -5.79173,6.13304 -1.10332,1.28059 -2.33627,2.45534 -3.2729,3.87086 -0.70379,1.05568 -1.58485,2.01348 -2.07433,3.20145 -0.3175,0.72232 -0.64029,1.44728 -0.96573,2.16959 0.57414,1.24354 1.10858,2.5056 1.64835,3.76502 1.19592,-0.62442 2.4765,-1.11919 3.52954,-1.97909 1.28323,-1.016 2.64584,-1.93675 3.87615,-3.0136 0.52123,-1.01864 0.81492,-2.13516 1.32027,-3.1591 0.47361,-0.62441 1.12977,-1.08214 1.70127,-1.60866 0.58738,0.84666 1.5584,1.524 1.66159,2.62731 0.19843,1.21179 0.6297,2.42094 0.42068,3.66448 -0.15875,1.28323 -0.0741,2.59027 -0.30427,3.86291 -1.06627,2.27542 -2.34156,4.44236 -3.683,6.56696 -0.49212,0.66675 -0.52652,1.51342 -0.64294,2.30452 -0.2487,2.02936 -0.64558,4.03754 -0.8837,6.06955 0.73289,2.32569 1.81504,4.54025 2.57439,6.86329 -0.42598,2.71198 -0.87048,5.42925 -0.92075,8.18359 1.41288,1.45521 2.99773,2.76754 4.43971,4.20949 -1.10067,1.18536 -2.0611,2.51355 -3.33904,3.52693 -1.17475,0.92868 -2.20133,2.02141 -3.18029,3.14854 -1.64042,1.89174 -3.51102,3.56129 -5.31813,5.28902 0.90752,-3.35227 1.65629,-6.74423 2.61144,-10.0833 0.67998,-2.26481 1.04775,-4.60372 1.50548,-6.91618 0.26458,-2.52677 0.2831,-5.08003 0.18521,-7.61206 -0.37042,-1.38907 -0.78052,-2.76754 -1.24354,-4.12486 -2.3495,-5.14615 -5.20436,-10.07269 -7.04586,-15.43579 -1.07421,-2.7146 -1.36789,-5.64621 -1.87589,-8.49577 0.25135,-1.83886 0.60854,-3.66713 0.94985,-5.49275 0.54504,-1.32557 1.23031,-2.59557 1.90765,-3.85763 1.4896,-2.11405 3.03212,-4.191 4.61962,-6.23094 0.889,-1.0795 1.26471,-2.45001 1.87325,-3.68564 0.78317,-1.49754 0.82815,-3.21998 1.18004,-4.84188 0.3175,-2.11137 1.10067,-4.14866 1.12977,-6.29973 0.0185,-1.06627 0.20638,-2.12725 0.16934,-3.19087 -0.68792,-3.05594 -1.70921,-6.04044 -2.06111,-9.16517 -0.76994,-2.80723 -1.33085,-5.69648 -2.50825,-8.37141 -0.39952,-0.1958 -0.87048,-0.082 -1.29646,-0.12436 -1.14829,3.46869 -1.651,7.11994 -3.00831,10.51984 -0.93398,0.84402 -1.98702,1.55839 -3.00302,2.30187 -0.89429,0.16404 -1.83885,0.11642 -2.74108,0.0265 -0.7329,-0.40746 -1.47109,-0.8255 -2.14048,-1.32821 -0.95779,-1.59012 -1.31498,-3.43694 -1.52136,-5.25727 0.46567,-1.92087 1.42082,-3.68829 2.40242,-5.39485 0.57415,-1.30443 1.08744,-2.63261 1.60599,-3.95817 0.97896,-4.90273 -0.15875,-9.90071 -1.59543,-14.59706 -0.85196,-2.07169 -1.78329,-4.12486 -3.22527,-5.86317 -0.30692,0.87577 -0.45773,1.80181 -0.81227,2.66436 -1.23561,2.58762 -2.59821,5.11439 -4.04284,7.59354 -0.55562,0.91546 -0.97369,1.97114 -1.89177,2.59821 -1.59544,1.43404 -3.31787,2.70404 -5.14614,3.82322 1.74625,1.61396 3.62743,3.06388 5.58006,4.41855 -2.667,0.26193 -5.10117,-1.13242 -7.71261,-1.39171 -0.80433,-0.0661 -1.61925,-0.28046 -2.42358,-0.16666 -0.83608,0.65616 -1.67746,1.33614 -2.39977,2.11402 -0.44715,0.93133 -0.82021,1.905 -1.12448,2.89189 0.3519,1.75419 1.46579,3.23321 2.78606,4.38415 1.27,0.61648 2.4818,1.46579 3.92377,1.60867 1.89442,0.26987 3.77032,0.68262 5.588,1.29645 0.71967,0.50007 1.41552,1.06363 2.02407,1.69863 0.83079,1.63777 1.4552,3.38402 2.4765,4.9239 0.60325,1.3626 1.91558,2.13516 2.97127,3.10885 0.53446,0.4101 0.99483,1.08479 1.75154,1.02656 2.84692,0.16139 5.68854,0.39952 8.53017,0.64296 -1.02656,0.73022 -1.99761,1.55575 -3.09296,2.17752 -1.47637,0.48154 -2.97921,0.88636 -4.47675,1.28852 -4.55083,-0.45244 -9.07521,-1.15623 -13.55196,-2.0955 1.25413,2.05052 2.87338,3.88938 3.83117,6.11452 0.43656,0.95779 0.93927,1.88648 1.35202,2.85486 0.38365,1.06627 0.61384,2.18281 0.95515,3.26495 0.48948,1.44463 0.23548,2.99244 0.37571,4.48734 0.16933,1.74625 -0.46302,3.42368 -0.72496,5.13027 -0.29104,2.14312 -1.25677,4.10104 -2.07698,6.07748 -0.508,-2.47121 -0.84402,-4.98211 -0.92075,-7.50359 -0.045,-0.73554 0.008,-1.49489 -0.25136,-2.19339 -0.58208,-1.67481 -0.92339,-3.46075 -1.94733,-4.94242 -0.84667,-1.78064 -2.29394,-3.14589 -3.67242,-4.51114 -1.75154,-0.85196 -3.63272,-1.42875 -5.3922,-2.26748 -1.74625,-0.99748 -3.42107,-2.11667 -5.17525,-3.09563 2.6617,3.09298 5.49275,6.07219 7.8052,9.44034 0.85725,2.4712 1.94469,4.89214 2.3495,7.49564 0.1905,1.32292 0.83344,2.65642 0.39688,3.99786 -1.22502,5.27579 -1.88383,10.71033 -1.54252,16.12635 0.78317,1.2409 1.65364,2.42623 2.50031,3.62479 1.74361,1.86002 3.78883,3.429 5.49804,5.32342 2.57175,3.61685 5.56154,6.90827 8.14123,10.52248 0.86254,-0.6641 1.79123,-1.24883 2.59292,-1.98702 0.55827,-0.88106 0.88371,-1.88383 1.37319,-2.80194 0.86254,2.25161 0.81491,4.68048 0.79375,7.05115 -0.32544,1.05039 -0.70115,2.0955 -1.15359,3.10091 -0.55562,0.6985 -1.20385,1.32027 -1.78593,1.99758 -1.55575,-1.5531 -3.40255,-2.82837 -4.67784,-4.64344 -1.47108,-1.78858 -2.76754,-3.72798 -4.43177,-5.34723 -1.12977,-1.16416 -2.26219,-2.32568 -3.3946,-3.48456 -0.66675,-0.66146 -1.24619,-1.4605 -2.14048,-1.82562 -1.95527,-0.94457 -3.83646,-2.04788 -5.81819,-2.92101 -2.34685,-0.33334 -4.70165,-0.62706 -7.05379,-0.92866 -4.13015,-0.14552 -8.2841,0.33867 -12.40367,-0.1561 -0.98689,-0.0794 -1.97379,-0.13494 -2.95804,-0.23548 1.30175,-2.16694 2.67758,-4.318 3.4634,-6.73894 -0.42334,-1.18004 -1.01865,-2.29923 -1.5875,-3.41577 -1.07421,-1.12712 -2.37332,-2.02935 -3.51367,-3.09298 2.14577,-0.1561 4.28096,-0.46564 6.42673,-0.6006 1.6801,0.24606 3.32052,0.73025 4.9874,1.06362 3.35756,0.53446 6.14097,2.74902 9.43239,3.49515 0,-2.30981 -0.32544,-4.63021 0.0106,-6.93208 0.28046,-2.46857 0.45244,-4.94771 0.63236,-7.42686 0.0529,-0.77523 -0.23284,-1.51341 -0.39159,-2.25954 -0.28045,-1.01865 -0.39422,-2.0955 -0.89429,-3.03742 -0.78316,-1.52135 -1.51606,-3.06652 -2.31246,-4.57993 -2.10079,-3.52161 -4.29418,-6.985 -6.50874,-10.43517 -1.88119,-2.667 -3.67242,-5.44248 -6.1304,-7.62529 -0.83344,-0.43921 -1.68804,-0.85725 -2.5744,-1.16946 -2.38654,-0.55562 -4.81277,-0.92866 -7.19137,-1.51342 -1.30175,-0.52916 -2.6035,-1.06891 -3.86027,-1.69068 -1.74625,-1.08744 -3.45546,-2.23838 -5.18054,-3.36021 0.81491,-0.23281 1.64041,-0.47625 2.49502,-0.51859 2.55852,-0.15081 5.11175,-0.42862 7.67291,-0.55033 2.17752,0.037 4.36034,-0.0688 6.53257,0.0556 2.32568,0.42069 4.68577,0.69321 6.985,1.22767 1.77535,0.75671 3.78354,1.09537 5.29166,2.36802 1.05569,0.80169 2.159,1.53458 3.1935,2.36537 1.53723,1.37584 2.98714,2.84692 4.47146,4.27832 0.8837,0.44712 1.93675,0.48948 2.88395,0.78845 0.0397,-0.97366 0.15079,-1.94468 0.14552,-2.91835 -0.69585,-2.32569 -1.85208,-4.47146 -3.1115,-6.53521 -1.50812,-2.12989 -3.07975,-4.23333 -4.32329,-6.52994 -0.44714,-1.45521 -0.93133,-2.90513 -1.27,-4.38944 0.18786,-1.13771 0.36513,-2.28335 0.66675,-3.39725 0.40482,-0.79375 0.83079,-1.62719 1.45786,-2.26748 2.36802,-1.38112 4.83658,-2.57175 7.27339,-3.82058 1.91823,-1.14829 3.80206,-2.36008 5.61975,-3.66183 0.44979,-0.33338 0.97896,-0.62177 1.23825,-1.143 2.03729,-3.83911 4.44236,-7.48242 6.29709,-11.41942 0.76467,-2.15641 1.45258,-4.34187 2.23575,-6.49293 z" id="path139" style="display:inline;opacity:0.272848;fill:#000000;stroke-width:0.264583"/>
    <path d="m 219.75299,113.82903 c 1.13242,-2.39448 2.31511,-4.7625 3.58775,-7.08554 0.80963,2.21456 1.50019,4.47145 2.31246,6.68602 1.41288,2.84427 2.99509,5.60123 4.62227,8.32643 0.67736,1.10067 1.16152,2.32305 1.93146,3.36286 2.01348,1.56104 4.18571,2.90777 6.35,4.24921 2.53206,1.33614 5.15673,2.52148 7.5909,4.0296 0.50006,0.67204 0.95779,1.39168 1.31498,2.15371 0.29898,1.11389 0.47889,2.26219 0.66675,3.40254 -0.26723,1.27527 -0.72761,2.50296 -1.06098,3.76502 -0.23813,0.98161 -0.90223,1.76742 -1.40759,2.61938 -0.94985,1.57427 -2.08491,3.02154 -3.12737,4.52969 -1.25942,2.06375 -2.413,4.21217 -3.1115,6.53521 -0.005,0.97366 0.10583,1.94469 0.14817,2.91835 0.91016,-0.24871 1.84679,-0.39687 2.74637,-0.68262 1.65629,-1.51077 3.17765,-3.175 4.89744,-4.61963 1.32821,-0.96308 2.62996,-1.96585 3.98727,-2.8866 1.1086,-0.53711 2.30452,-0.87313 3.44752,-1.33615 1.28323,-0.55827 2.6961,-0.63235 4.05871,-0.889 1.37583,-0.20902 2.74373,-0.51329 4.13014,-0.65616 3.26496,-0.0159 6.53257,-0.10055 9.78697,0.23547 2.15635,0.26459 4.38679,0.10848 6.47171,0.82021 -1.8468,1.1774 -3.63538,2.45534 -5.53509,3.54542 -1.59279,0.65087 -3.11679,1.55575 -4.84187,1.81504 -1.95263,0.40481 -3.91319,0.76465 -5.85788,1.20386 -1.26206,0.51593 -2.65906,0.95514 -3.51366,2.09285 -2.04259,1.97908 -3.53484,4.4106 -5.19113,6.7019 -3.23585,5.14085 -6.70454,10.17852 -9.14135,15.76652 -0.34925,1.33614 -0.6985,2.67493 -0.95779,4.03225 0.11377,3.08504 0.4445,6.1595 0.75935,9.23131 0.0767,1.88119 -0.11377,3.75973 -0.12171,5.64091 2.77019,-0.64558 5.18848,-2.26483 7.87665,-3.14325 2.18281,-0.46037 4.34445,-1.04775 6.54314,-1.41552 2.14577,0.1323 4.28099,0.4445 6.42673,0.59796 -1.02394,0.91546 -2.09285,1.78329 -3.13002,2.68288 -0.52123,0.41275 -0.71173,1.07685 -1.00542,1.64835 -0.31485,0.72761 -0.75141,1.41288 -0.96308,2.18281 0.78317,2.4183 2.159,4.56936 3.46075,6.7363 -1.94733,0.15081 -3.88937,0.34395 -5.83935,0.46302 -3.08505,0.005 -6.17009,-0.11113 -9.25248,-0.0926 -2.50825,0.31485 -5.03767,0.57943 -7.52213,1.01335 -2.10873,1.05304 -4.21482,2.11929 -6.28915,3.23585 -1.59544,1.48432 -3.05858,3.1168 -4.60375,4.66196 -2.21721,2.13519 -3.86027,4.76779 -5.88962,7.06702 -1.143,1.08215 -2.34686,2.10344 -3.48192,3.1935 -0.58208,-0.67731 -1.23031,-1.29646 -1.78329,-1.99758 -0.45509,-1.00277 -0.83079,-2.05055 -1.15623,-3.10092 -0.0238,-2.37066 -0.0688,-4.79689 0.79375,-7.0485 0.48948,0.91546 0.81492,1.92088 1.37319,2.7993 0.79904,0.73818 1.73037,1.32291 2.59291,1.98702 1.57163,-2.16165 3.21998,-4.26773 4.94242,-6.31032 1.61925,-1.91558 2.86808,-4.14337 4.74398,-5.83406 1.15094,-1.14035 2.33627,-2.24896 3.46075,-3.41577 0.82021,-1.06098 1.45256,-2.2516 2.19339,-3.3655 0.57944,-0.74877 0.26988,-1.74625 0.34396,-2.61408 0.0767,-3.14854 -0.11906,-6.29444 -0.38893,-9.42975 -0.28311,-1.62984 -0.58738,-3.25438 -0.8943,-4.87627 -0.3122,-1.23561 0.30692,-2.43682 0.4789,-3.64332 0.45244,-2.64583 1.54252,-5.1091 2.43681,-7.62 2.3336,-3.35227 5.15673,-6.33677 7.8237,-9.42445 -2.35479,1.25941 -4.46881,2.98714 -7.00881,3.88143 -1.18004,0.508 -2.40771,0.90488 -3.55071,1.48432 -0.66675,0.56356 -1.2065,1.25677 -1.82033,1.87325 -1.13242,1.06891 -1.7489,2.52677 -2.53735,3.84175 -0.57944,1.41552 -1.00013,2.89983 -1.42611,4.37091 -0.12171,3.04006 -0.35454,6.08542 -1.00541,9.06463 -0.58473,-1.28059 -1.07686,-2.6035 -1.5875,-3.91319 -0.47096,-1.64571 -0.67734,-3.35227 -1.06892,-5.0165 -0.30427,-1.18269 -0.11113,-2.40242 -0.0979,-3.60098 0.037,-0.9869 -0.0556,-2.00028 0.26723,-2.9501 0.47096,-1.4605 0.70115,-3.01096 1.42346,-4.3815 0.59531,-1.17211 1.10331,-2.38655 1.73567,-3.53748 0.97896,-1.53194 2.0611,-2.99773 3.03741,-4.52967 -2.65906,0.46831 -5.28902,1.12183 -7.97718,1.41023 -1.81505,0.2196 -3.62744,0.49742 -5.44248,0.69585 -1.21973,-0.23283 -2.38919,-0.67468 -3.5904,-0.97102 -1.62189,-0.34395 -2.77548,-1.62454 -4.11162,-2.5056 3.02154,-0.2831 6.05102,-0.46567 9.0752,-0.70911 1.03982,-0.71438 1.92617,-1.63513 2.91571,-2.41829 0.8255,-0.635 1.20386,-1.63513 1.75154,-2.48709 0.80698,-1.28852 1.26471,-2.75431 1.98703,-4.08781 0.87841,-0.82021 1.76477,-1.8071 3.0136,-2.00819 1.51342,-0.46831 3.07181,-0.75935 4.63815,-0.99218 1.4261,-0.14817 2.62466,-0.99748 3.88408,-1.60338 1.32027,-1.15094 2.43417,-2.62996 2.78606,-4.38414 -0.30427,-0.9869 -0.67733,-1.96057 -1.12448,-2.88925 -0.72496,-0.78052 -1.56633,-1.4605 -2.40241,-2.11667 -2.65378,-0.10319 -5.20436,0.80169 -7.7523,1.42875 -0.77523,0.21167 -1.59014,0.13229 -2.38125,0.12965 1.94998,-1.35467 3.83117,-2.80459 5.58007,-4.41855 -2.14048,-1.31233 -4.15661,-2.83368 -5.95048,-4.58787 -1.68275,-2.77813 -3.26761,-5.61975 -4.69636,-8.53811 -0.65352,-1.09272 -0.8546,-2.36008 -1.24618,-3.55335 -1.48167,1.79388 -2.44211,3.91054 -3.29142,6.05631 -1.21708,4.15661 -2.30717,8.50371 -1.7436,12.86404 0.0503,1.905 1.10595,3.56394 1.73302,5.31548 0.97631,1.7833 2.02141,3.58511 2.48972,5.57742 -0.20637,1.82033 -0.56356,3.66713 -1.52135,5.25727 -0.67204,0.50271 -1.40758,0.92075 -2.14048,1.32821 -0.90487,0.09 -1.84679,0.13494 -2.74108,-0.0265 -1.016,-0.74348 -2.06902,-1.45785 -3.00302,-2.29923 -1.35731,-3.40254 -1.86002,-7.05379 -3.00831,-10.52248 -0.43128,0.037 -0.8943,-0.0609 -1.29382,0.11906 -1.15887,2.6035 -1.68804,5.42661 -2.46591,8.15446 -0.36513,2.93423 -1.20121,5.77056 -1.9394,8.62542 -0.37571,1.1086 -0.0397,2.27012 -0.0265,3.40519 0.0185,2.86543 1.08215,5.57477 1.43404,8.40052 0.20638,2.22514 1.31498,4.20158 2.23309,6.19654 2.53471,3.5851 5.66473,6.87916 7.12787,11.094 0.28575,1.57163 0.55298,3.1459 0.83609,4.72017 0.16404,0.81492 -0.12436,1.6219 -0.24342,2.42623 -0.29898,1.47637 -0.508,2.96862 -0.84402,4.43971 -1.7145,5.56948 -4.37092,10.78177 -7.13052,15.89617 -1.08215,1.82033 -1.70657,3.85762 -2.3839,5.84993 -0.19314,2.89719 -0.0423,5.82348 0.65617,8.65188 0.52387,2.56646 1.16946,5.10381 1.92881,7.61206 0.78317,2.7649 1.41817,5.56681 2.19075,8.33438 -2.08492,-1.96321 -4.18306,-3.9238 -6.04308,-6.10926 -1.23296,-1.51342 -2.93952,-2.53735 -4.18307,-4.03754 -0.52916,-0.60852 -1.05304,-1.21973 -1.59014,-1.81504 1.43933,-1.44463 3.02683,-2.75429 4.43971,-4.2095 -0.0873,-2.48708 -0.3519,-4.96623 -0.82815,-7.40836 -0.30427,-0.99218 0.3519,-1.87854 0.64558,-2.78077 0.59532,-1.62718 1.3335,-3.20675 1.83621,-4.86039 -0.35983,-2.54265 -0.7276,-5.09323 -1.14829,-7.62794 -1.13506,-2.11932 -2.53206,-4.10369 -3.56394,-6.28915 -0.93662,-1.36789 -0.54239,-3.09298 -0.78052,-4.63814 -0.25135,-1.32292 0.16404,-2.61406 0.39688,-3.89996 0.0953,-1.10596 1.07156,-1.78594 1.66423,-2.64054 0.53446,0.48154 1.10596,0.92604 1.59279,1.4605 0.67204,1.06627 0.83344,2.41564 1.56369,3.44752 2.30981,1.78064 4.5376,3.73856 7.27075,4.8551 0.5371,-1.26206 1.07156,-2.52148 1.64835,-3.76502 -0.68262,-1.47373 -1.21444,-3.04006 -2.27542,-4.29948 -1.50548,-2.32833 -3.48191,-4.27567 -5.30225,-6.34735 -1.61395,-1.82034 -3.41577,-3.47134 -5.00856,-5.3049 -1.10598,-2.18017 -2.17487,-4.38415 -3.22265,-6.59342 -0.30163,-1.60337 -0.2884,-3.24908 -0.48948,-4.86833 -0.25135,-1.33879 0.4101,-2.6035 0.78581,-3.85498 0.54766,1.65894 1.03452,3.3364 1.61925,4.98475 0.97896,1.60338 2.19075,3.06123 3.49515,4.41325 0.36777,-0.45508 0.82021,-0.8546 1.1086,-1.36789 -0.24077,-1.38907 -0.55033,-2.7649 -0.80168,-4.1487 -0.37571,-2.65377 -1.82034,-4.97943 -2.6035,-7.50887 -0.037,-1.59012 -0.0688,-3.18823 0.0265,-4.77573 0.48948,-3.19088 0.97896,-6.38175 1.54782,-9.55675 0.35983,-2.61144 0.44185,-5.25198 0.76464,-7.86606 0.25665,-1.77007 0.59267,-3.5269 0.85725,-5.29432 0.20109,-1.25148 -0.35189,-2.57175 0.20373,-3.76502 1.72508,-4.65931 3.6539,-9.24454 5.19375,-13.97 -0.26194,3.70417 -0.56886,7.40569 -0.81492,11.10721 0.21167,1.20386 0.49742,2.39977 0.80433,3.58246 0.54769,0.9234 1.20915,1.78329 1.89706,2.60879 1.19328,1.10861 2.45534,2.14844 3.683,3.22792 -0.11906,-2.09021 -0.39158,-4.16719 -0.4392,-6.2574 0.28575,-1.69069 0.75406,-3.34962 1.10331,-5.02708 0.16666,-1.00013 0.80962,-1.80975 1.27,-2.68552 1.0981,-2.00023 2.31254,-3.94227 3.27297,-6.0166 z" id="path141" style="display:inline;opacity:0.272848;fill:#000000;stroke-width:0.264583"/>
    <path fill="#ffffff" d="m 107.4506,158.38486 c 1.16946,-0.16666 2.32569,-0.42333 3.50308,-0.51858 2.27013,0.11112 4.54025,0.29898 6.80773,0.47096 0.98954,0.46831 1.93146,1.05304 2.84956,1.65102 0.69586,0.76994 1.24355,1.66159 1.87061,2.48973 -2.15106,0.44715 -4.32065,0.82815 -6.51933,0.91546 -1.27,-0.082 -1.89971,1.20121 -2.7305,1.9341 0.42597,0.69586 0.72495,1.47638 1.2356,2.12196 1.13506,0.90752 2.4474,1.58486 3.55865,2.52413 0.55827,1.37054 1.18004,2.7305 1.6166,4.14337 -0.33602,2.09286 -0.88106,4.16719 -1.84944,6.05896 -1.28323,1.35996 -2.73579,2.55852 -4.02166,3.91848 -0.56621,0.49742 -0.889,1.18269 -1.22767,1.8415 1.397,0.18785 2.78077,0.54239 4.18835,0.61383 2.43946,-0.91016 4.85511,-1.905 7.10671,-3.22262 2.44475,-1.14036 4.30742,-3.16971 6.6384,-4.49263 1.19856,-0.70908 2.36802,-1.46579 3.57981,-2.14841 -0.38365,1.44727 -0.7964,2.8866 -1.18269,4.33387 -0.0847,0.37306 -0.30162,0.69585 -0.55033,0.98425 -1.54252,1.81504 -3.05858,3.65125 -4.61963,5.45306 -0.65352,0.74877 -1.24618,1.57427 -2.06904,2.15636 -1.33879,0.96308 -2.55852,2.11931 -4.08252,2.79929 -3.32846,1.75948 -6.72835,3.37873 -10.14677,4.95829 1.39435,0.93398 2.79929,1.86002 4.16454,2.83633 1.38906,1.13242 2.74902,2.29659 4.11956,3.45282 -1.91558,1.29114 -3.81793,2.59818 -5.71764,3.91054 -0.80963,0.60589 -1.86002,0.65087 -2.80194,0.92339 -3.20146,0.6985 -6.35793,1.57692 -9.53028,2.39184 -1.748904,-0.045 -3.455464,-0.62442 -5.201714,-0.73554 -1.41287,0.32014 -2.79664,0.77522 -4.20952,1.10595 -0.59531,1.15359 -1.2356,2.28601 -1.79123,3.4634 -0.18785,1.10596 -0.0979,2.24367 -0.22225,3.36286 -0.0265,1.07156 -0.30692,2.18019 0.0423,3.23056 0.21432,0.76994 0.43128,1.54252 0.62971,2.3204 0.93134,-0.0212 1.86796,0.0688 2.794,-0.0503 3.22527,-3.05594 6.15686,-6.40821 9.236614,-9.60703 1.52929,-0.63764 3.13795,-1.09272 4.70957,-1.62718 1.69598,-0.40217 3.43958,-0.56622 5.15408,-0.88107 1.77007,-0.35719 3.58246,-0.28046 5.37369,-0.37306 -2.33627,1.08479 -4.7916,1.92617 -7.10935,3.05329 -1.67482,1.87325 -3.20146,3.87086 -4.75721,5.84465 -0.54504,0.58208 -0.37042,1.44198 -0.51594,2.16958 1.10067,-0.037 2.21456,0.0767 3.31258,-0.0556 3.06653,-1.55046 5.94519,-3.43694 8.8609,-5.25198 0.98425,-0.66939 2.19604,-0.80962 3.30465,-1.1721 1.15093,-0.2884 2.26218,-0.79375 3.46339,-0.82286 2.0029,-0.0688 4.00315,-0.38364 6.00869,-0.20902 2.0955,0.21167 4.19629,0.37306 6.29444,0.56356 -4.48204,2.04523 -9.13871,3.7465 -13.40379,6.23888 -1.27,0.93398 -2.56117,1.8415 -3.81265,2.80194 -0.84402,0.83079 -1.60867,1.74625 -2.36273,2.66171 -0.60325,1.02129 -1.04246,2.12989 -1.55575,3.19881 1.43669,0.0847 2.8575,0.38896 4.29948,0.41807 1.20385,-0.45247 2.29658,-1.16946 3.51367,-1.58221 1.08479,-0.0212 2.16693,0.11639 3.25437,0.15875 0.005,0.86519 0.27252,1.76739 0.0609,2.61144 -0.60061,0.89958 -1.2065,1.79649 -1.87855,2.64583 -0.89429,0.53972 -1.83885,1.05039 -2.82575,1.38642 -2.08227,0.0582 -4.16189,0.39952 -6.24681,0.24868 -3.63008,-0.36513 -7.26546,-0.68792 -10.91671,-0.72761 -2.19338,0.0556 -4.3418,-0.45243 -6.514034,-0.6773 2.762254,-1.5928 5.670024,-2.90513 8.593664,-4.16984 0.11906,-0.6006 0.24077,-1.20121 0.34396,-1.80184 -3.19881,0.49477 -6.4082,0.91549 -9.620244,1.31236 -1.49225,0.35984 -2.97392,0.83344 -4.39738,1.40227 -0.50271,0.67204 -0.94985,1.39435 -1.32292,2.14842 -0.32014,2.07436 -0.67997,4.15398 -0.76993,6.25475 0.082,1.60869 -1.11125,2.84162 -1.70657,4.24656 -2.74372,-0.045 -5.49804,0.10848 -8.23647,-0.09 -3.41313,-0.5424 -6.84742,0.11639 -10.27377,0.14285 2.49766,-1.68804 4.87097,-3.61418 7.63322,-4.86834 1.05305,-0.54766 2.14577,-1.02658 3.16971,-1.62716 0.63236,-1.27796 1.01865,-2.66173 1.57163,-3.97404 0.48154,-1.04248 0.36777,-2.20927 0.52387,-3.31523 0.21431,-2.83898 0.52123,-5.67002 0.75142,-8.509 0.0132,-1.33879 -0.14023,-2.67493 -0.13494,-4.01373 -4.39473,0.39426 -8.77623,0.90752 -13.16037,1.38377 3.14589,-1.8997 6.44789,-3.54277 9.63083,-5.38427 0.81756,-1.10331 1.42081,-2.38919 2.03729,-3.61685 -0.32544,-2.32834 -0.76464,-4.64344 -1.15887,-6.96119 1.28058,0.40481 2.56116,0.82021 3.8391,1.23296 2.33627,0.8837 4.8551,0.99483 7.28663,1.47108 3.21733,0.69056 6.52462,0.44185 9.789584,0.56356 1.58221,0.11642 3.12736,-0.29898 4.65136,-0.65352 0.9869,-0.46037 1.89442,-1.07685 2.8284,-1.63512 -1.016,-0.42069 -1.99231,-0.9525 -3.03742,-1.30175 -1.96321,-0.39159 -3.95551,-0.64556 -5.91607,-1.05569 -6.971774,-1.85738 -13.914444,-3.8444 -20.722174,-6.24152 -1.73831,-0.40746 -2.96862,-1.78329 -4.3471,-2.82046 5.05883,0.68527 10.10179,1.4949 15.14475,2.29394 2.46327,-0.0185 4.92654,-0.22754 7.38981,-0.30692 1.873254,-0.53181 3.714754,-1.19592 5.558904,-1.82827 1.74359,-0.82285 3.46074,-1.70392 5.18053,-2.57969 -5.91607,-0.14023 -11.824224,-0.47625 -17.713854,-1.03716 -4.86568,-0.99481 -9.68375,-2.21986 -14.49916,-3.4343 4.33387,-0.45773 8.68362,-0.79639 13.03602,-1.02923 2.46856,-0.11112 4.94242,-0.18785 7.40304,-0.39687 2.643194,-0.6694 5.291674,-1.34408 7.924264,-2.06375 0.80433,-0.48683 1.34673,-1.32821 2.032,-1.97115 1.62454,-1.59279 3.00038,-3.40783 4.42648,-5.1726 -0.3175,-1.57956 -0.67469,-3.14854 -0.96308,-4.73075 -2.02671,-0.73554 -4.00315,-1.68804 -6.14892,-2.02406 -0.92074,-0.16404 -1.82297,-0.42069 -2.75166,-0.53446 -1.86266,0.1614 -3.675064,0.80433 -5.561544,0.70115 -1.66687,-0.0767 -3.37873,0.20105 -5.00327,-0.29369 -1.45521,-0.36777 -2.921,-0.68527 -4.36827,-1.08215 3.38402,-1.72773 6.7601,-3.47662 10.05417,-5.37633 1.89706,-1.16152 4.045484,-1.78594 6.077484,-2.65906 1.18268,-0.53184 2.5003,-0.56624 3.75707,-0.80701 z" id="path143" style="display:inline;opacity:0.272848;fill:#000000;stroke-width:0.264583"/>
    <path d="m 274.71753,158.2658 c 2.70405,-0.0423 5.43455,-0.72496 8.11742,-0.11906 1.55575,0.29633 3.15383,0.40481 4.68313,0.83079 1.93413,0.80698 3.94493,1.44727 5.81027,2.41035 3.57452,2.04523 7.2099,3.97933 10.88496,5.83936 -1.4473,0.39687 -2.91306,0.71437 -4.36562,1.08214 -1.80449,0.52123 -3.70152,0.20108 -5.54834,0.29369 -2.18282,0.0767 -4.33123,-1.15358 -6.49021,-0.42865 -2.59027,0.3625 -5.01388,1.33085 -7.42952,2.286 -0.2884,1.58221 -0.64556,3.15118 -0.96309,4.73075 1.92617,2.49766 4.0058,4.87362 6.2733,7.06702 2.67494,0.79639 5.40277,1.43669 8.10684,2.14048 2.46059,0.20902 4.93445,0.28575 7.40568,0.39687 4.3524,0.23548 8.70215,0.56886 13.03602,1.02923 -4.81544,1.21444 -9.63348,2.43946 -14.50184,3.43429 -5.88697,0.56095 -11.79777,0.89959 -17.71118,1.03717 2.41827,1.1774 4.74396,2.60085 7.35539,3.32317 1.45786,0.39952 2.84163,1.19327 4.39209,1.14564 2.12989,0.0132 4.25188,0.26723 6.38439,0.24342 5.04031,-0.7964 10.08327,-1.60602 15.14211,-2.29129 -0.97629,0.80433 -1.96054,1.60337 -3.00038,2.31775 -5.26785,1.95791 -10.66533,3.55864 -16.06285,5.11175 -2.76754,0.69321 -5.47161,1.651 -8.30263,2.05316 -1.20652,0.22225 -2.42358,0.38365 -3.62217,0.635 -1.0451,0.34925 -2.01877,0.88107 -3.03477,1.30175 0.93133,0.55563 1.83623,1.17211 2.8231,1.63248 1.43666,0.33073 2.89452,0.74084 4.38679,0.65882 2.52148,-0.0608 5.04564,-0.0291 7.56444,-0.17463 2.63792,-0.40217 5.2705,-0.83873 7.90311,-1.28323 1.92087,-0.55827 3.81,-1.22237 5.72031,-1.81769 -0.39687,2.3204 -0.83608,4.6355 -1.16152,6.96648 0.44712,1.03717 1.06625,1.99497 1.59015,3.00038 0.30424,0.75671 1.14565,0.98161 1.78856,1.37584 2.79402,1.55045 5.61713,3.05064 8.38996,4.64343 -4.41857,-0.49479 -8.83444,-1.00012 -13.26092,-1.40493 0.008,1.78064 -0.28313,3.56658 -0.0238,5.34191 0.33338,3.23059 0.53711,6.47964 0.89429,9.70759 0.5874,1.59279 1.12713,3.22259 1.84153,4.76514 2.19601,1.27794 4.64341,2.11931 6.68867,3.65387 1.36522,0.9525 2.77283,1.84679 4.11159,2.84163 -3.43958,-0.0265 -6.8871,-0.68528 -10.3161,-0.13759 -2.72518,0.18788 -5.46365,0.0423 -8.1915,0.0847 -0.51596,-1.08214 -1.20653,-2.0902 -1.6219,-3.21204 -0.127,-2.44739 -0.44981,-4.87894 -0.8546,-7.29453 -0.37838,-0.75145 -0.82285,-1.47111 -1.32292,-2.14315 -1.85473,-0.68792 -3.74914,-1.41817 -5.74148,-1.58221 -2.76754,-0.30692 -5.52186,-0.72496 -8.27614,-1.13242 0.10051,0.60061 0.22225,1.20121 0.34129,1.80184 2.92364,1.26471 5.83406,2.5744 8.59631,4.17248 -1.55575,0.18785 -3.10621,0.42069 -4.65932,0.62177 -3.21995,0.11639 -6.45054,0.1138 -9.65199,0.49742 -1.71186,0.09 -3.41578,0.42333 -5.13292,0.30691 -1.15888,-0.0741 -2.31511,-0.18259 -3.47663,-0.22227 -1.27793,0.045 -2.33362,-0.80166 -3.43164,-1.32819 -0.6985,-0.64296 -1.12977,-1.52929 -1.7145,-2.2675 -0.76729,-0.86519 -0.21696,-2.07433 -0.254,-3.09827 1.08479,-0.0423 2.16694,-0.17994 3.25437,-0.15875 1.62984,0.44183 3.02684,1.96847 4.82336,1.49487 0.99218,-0.13494 1.98702,-0.24604 2.98979,-0.33073 -0.59002,-1.16414 -1.00013,-2.43946 -1.78065,-3.4925 -0.89429,-0.95779 -1.64306,-2.07963 -2.73579,-2.8284 -1.778,-1.24354 -3.429,-2.70668 -5.45571,-3.54277 -3.60627,-1.9341 -7.46654,-3.31523 -11.16806,-5.03766 3.3311,-0.1958 6.65692,-0.85461 9.9986,-0.50007 1.37319,0.1614 2.79665,0.0132 4.11957,0.48684 1.47108,0.48683 3.01889,0.762 4.45026,1.35995 3.10624,1.87325 6.11984,3.91584 9.37154,5.54567 1.09273,0.13229 2.20666,0.0185 3.30994,0.0556 -0.15078,-0.7276 0.0291,-1.5875 -0.51858,-2.16958 -1.55311,-1.97379 -3.07975,-3.97404 -4.75456,-5.842 -2.31775,-1.12712 -4.77309,-1.97115 -7.112,-3.05594 1.69597,0.0979 3.40783,0.005 5.08529,0.32544 1.31233,0.21431 2.62734,0.42862 3.94229,0.62706 1.69333,0.20902 3.26231,0.92604 4.88156,1.42346 0.54507,0.21696 1.20386,0.28311 1.60605,0.76465 2.95008,3.15118 5.83933,6.36852 8.96144,9.35037 0.92339,0.11642 1.86264,0.0291 2.79397,0.045 0.23812,-1.07421 0.6509,-2.11137 0.80169,-3.20146 -0.045,-1.68275 -0.23813,-3.35491 -0.26194,-5.03502 0.0344,-0.64558 -0.33602,-1.18798 -0.61648,-1.73302 -0.42865,-0.79904 -0.83608,-1.60867 -1.26471,-2.40507 -1.41552,-0.33337 -2.79667,-0.78316 -4.21216,-1.10595 -1.04775,0.0529 -2.07169,0.32808 -3.10886,0.47625 -0.84135,0.0926 -1.70124,0.44185 -2.54,0.15875 -3.09562,-0.84932 -6.20448,-1.651 -9.3345,-2.35215 -0.86519,-0.23812 -1.82033,-0.30162 -2.55323,-0.86519 -1.89706,-1.31233 -3.79941,-2.61673 -5.70971,-3.90525 1.87061,-1.53458 3.62215,-3.22791 5.67005,-4.53231 0.86516,-0.59267 1.733,-1.18269 2.61144,-1.75948 -3.77561,-1.74096 -7.52478,-3.54542 -11.18923,-5.50862 -1.02129,-0.64294 -1.92881,-1.44198 -2.90248,-2.14313 -1.04246,-0.71702 -1.75154,-1.77535 -2.58231,-2.69875 -1.53458,-1.81239 -3.09562,-3.60627 -4.57464,-5.45835 -0.58473,-1.58221 -0.92869,-3.25702 -1.40229,-4.87627 2.16693,1.30968 4.4106,2.51618 6.38968,4.10898 2.89984,2.33891 6.31032,3.94493 9.75781,5.30754 0.51858,0.17991 1.03188,0.5371 1.60867,0.43921 1.25148,-0.19315 2.50296,-0.40217 3.75443,-0.6059 -0.97895,-2.12196 -3.01625,-3.45017 -4.60375,-5.08529 -0.82814,-0.6059 -1.06627,-1.62719 -1.43139,-2.52413 -0.56356,-1.34143 -0.78846,-2.79135 -1.06098,-4.20952 0.26723,-1.03981 0.78317,-2.00025 1.14035,-3.01096 0.23019,-0.47095 0.28575,-1.08743 0.76465,-1.38641 1.06892,-0.78582 2.2225,-1.45257 3.27025,-2.27013 0.508,-0.64558 0.80698,-1.4261 1.2356,-2.1246 -0.83343,-0.73025 -1.46314,-2.01348 -2.7305,-1.93146 -2.19868,-0.0873 -4.36298,-0.46831 -6.50875,-0.91546 0.83873,-1.03717 1.39965,-2.40771 2.667,-3.00831 0.89699,-0.43386 1.68545,-1.25143 2.74643,-1.2038 z" id="path145" style="display:inline;opacity:0.272848;fill:#000000;stroke-width:0.264583"/>
    <path fill="#ffffff" d="m 143.79377,218.55905 c 1.31233,-0.18785 2.61408,-0.46566 3.937,-0.59796 1.3626,-0.0185 2.7252,0.0397 4.09045,0.0926 -1.19062,0.97102 -2.413,1.90235 -3.60891,2.86279 -0.43392,0.30692 -0.61384,0.82021 -0.84138,1.27794 -0.40216,0.88635 -0.95779,1.73566 -1.03981,2.7305 0.14552,0.63235 0.61912,1.16416 0.61383,1.8415 0.1614,2.28862 1.00277,4.699 2.94217,6.06422 1.4949,0.58211 3.02154,1.07953 4.47675,1.76744 0.99748,-0.13758 1.98967,-0.35983 2.95804,-0.63235 0.69056,-0.41804 1.2065,-1.06892 1.82033,-1.58486 0.33867,-0.35718 0.82815,-0.6456 0.93134,-1.16152 0.34131,-1.44198 0.64823,-2.89192 0.99748,-4.32858 1.188,0.76994 2.4289,1.4605 3.59833,2.26481 0.96308,0.7911 1.83092,1.69862 2.77283,2.52148 0.23284,0.23283 0.67469,0.48683 0.45509,0.89164 -0.60325,2.56649 -1.81769,4.91334 -2.8284,7.33163 -0.58473,1.30173 -1.09008,2.64054 -1.72244,3.9211 -2.89718,-1.60867 -5.70177,-3.38934 -8.59631,-5.00062 -2.37067,-0.69321 -4.83129,-1.06892 -7.20196,-1.75684 -1.69598,-1.02393 -3.35756,-2.11931 -4.98475,-3.24905 -0.69585,-1.18801 -1.25148,-2.45269 -1.905,-3.66451 -0.76993,-1.38906 -1.09273,-2.96066 -1.63512,-4.43971 -0.80169,-1.81768 -0.2249,-3.82058 -0.26723,-5.72823 1.68275,-0.46035 3.29142,-1.20912 5.03767,-1.42343 z" id="path147" style="display:inline;opacity:0.272848;fill:#000000;stroke-width:0.264583"/>
    <path d="m 239.95393,218.0537 c 1.35996,-0.0556 2.71992,-0.10848 4.08252,-0.0926 1.32292,0.13494 2.62996,0.41011 3.94759,0.59796 1.7436,0.21431 3.35227,0.96308 5.03502,1.42346 0.0291,1.47108 0.20108,2.94746 0.13229,4.41854 -0.71438,2.17752 -1.25148,4.445 -2.39448,6.45054 -0.52917,0.97899 -0.97102,2.00819 -1.54517,2.96336 -1.06362,0.80166 -2.23044,1.46048 -3.32846,2.21457 -0.71702,0.43653 -1.37318,1.03184 -2.2172,1.21179 -1.7198,0.39158 -3.43959,0.79375 -5.15938,1.18798 -0.61912,0.14819 -1.27529,0.22754 -1.82827,0.5662 -2.75696,1.59809 -5.47158,3.26761 -8.24706,4.826 -1.19592,-2.57704 -2.2569,-5.21493 -3.41048,-7.80785 -0.51329,-1.10331 -0.80434,-2.286 -1.143,-3.44487 -0.2249,-0.40482 0.21431,-0.65882 0.45508,-0.89165 0.93927,-0.82285 1.80711,-1.73038 2.77548,-2.52413 1.16681,-0.80166 2.40771,-1.49222 3.59569,-2.26216 0.34396,1.42611 0.65087,2.86544 0.98954,4.29684 0.0873,0.53446 0.59002,0.82814 0.94192,1.19591 0.61118,0.51594 1.12712,1.16417 1.81768,1.58221 0.96838,0.27517 1.96057,0.49213 2.96069,0.63236 1.44992,-0.69057 2.97921,-1.18534 4.47411,-1.76745 1.92881,-1.35996 2.77547,-3.75708 2.93687,-6.03512 -0.0635,-0.8546 0.84931,-1.51077 0.53446,-2.36275 -0.34661,-1.14565 -0.91811,-2.23309 -1.51871,-3.25964 -1.25148,-1.09278 -2.61144,-2.05587 -3.88673,-3.11949 z" id="path149" style="display:inline;opacity:0.272848;fill:#000000;stroke-width:0.264583"/>
    <path fill="#ffffff" d="m 153.10974,222.30555 c 1.28588,-0.32544 2.7358,-0.20373 3.8735,0.51329 1.3388,1.21179 1.34144,3.20146 1.13771,4.8604 -0.19843,2.19871 -2.55587,4.08519 -4.74133,3.30729 -1.69598,-0.77525 -3.302,-1.96588 -4.0931,-3.70417 -0.0714,-0.59266 -0.0714,-1.19327 -0.003,-1.78064 0.78581,-1.50813 2.11402,-2.83634 3.82587,-3.19617 z" id="path151" style="display:inline;opacity:0.272848;fill:#000000;stroke-width:0.264583"/>
    <path d="m 235.68356,222.40609 c 2.54264,-0.97102 5.77056,0.60061 6.32883,3.31788 0.3519,2.07698 -1.12977,3.96081 -2.87602,4.89744 -1.08744,0.70114 -2.60086,0.71175 -3.68036,-0.005 -2.29393,-1.26997 -3.09033,-4.51112 -1.71185,-6.7257 0.50006,-0.65882 1.1086,-1.28059 1.9394,-1.48432 z" id="path153" style="display:inline;opacity:0.272848;fill:#000000;stroke-width:0.264583"/>
    <path fill="#ffffff" d="m 171.57237,236.32582 c 1.30969,-1.93413 2.58498,-3.8894 3.88937,-5.82083 -0.55297,2.667 -0.90222,5.38692 -1.71714,7.99306 -0.24606,0.94189 -0.58473,1.86002 -0.75406,2.82046 0.1217,1.21179 0.2831,2.42356 0.51064,3.62212 0.40217,1.3335 0.83344,2.66438 1.28059,3.9873 0.62706,0.69847 1.44727,1.23557 2.23308,1.7568 1.08479,0.43392 2.19075,0.82815 3.30464,1.18536 3.27293,0.21164 6.69132,0 9.78697,1.29908 -2.23573,1.66688 -4.42648,3.39992 -6.43202,5.34196 -2.76754,3.43959 -5.53244,6.88182 -8.14388,10.44311 0.0291,-3.21733 -0.29898,-6.4479 0.10054,-9.652 0.0926,-1.0504 0.24342,-2.10347 0.2249,-3.15651 -0.14287,-1.21179 -0.37835,-2.41035 -0.59793,-3.60891 -2.51354,-1.42346 -4.86833,-3.09563 -7.29194,-4.66196 0.85989,-2.87602 1.79122,-5.73085 2.56645,-8.63071 0.32541,-0.98158 0.42331,-2.06372 1.03979,-2.91833 z" id="path155" style="display:inline;opacity:0.272848;fill:#000000;stroke-width:0.264583"/>
    <path d="m 216.3531,230.62141 c 1.44991,2.08756 2.88925,4.20158 4.22804,6.36322 1.0504,3.63538 2.09285,7.27605 3.22792,10.88758 -2.42359,1.56901 -4.7784,3.24115 -7.29195,4.66461 -0.22225,1.19856 -0.45773,2.39715 -0.59793,3.60891 -0.0212,1.05834 0.13229,2.11667 0.2249,3.17236 0.39687,3.19884 0.0688,6.42408 0.10054,9.63612 -1.75154,-2.32833 -3.47398,-4.67786 -5.334,-6.9215 -1.37057,-1.62189 -2.49505,-3.47662 -4.19365,-4.78896 -1.58485,-1.47637 -3.32845,-2.76222 -5.04825,-4.07458 2.68817,-1.11654 5.64621,-1.13504 8.509,-1.22767 1.56369,0.11113 2.95275,-0.72231 4.40267,-1.17472 0.87577,-0.48948 1.72508,-1.11125 2.413,-1.83885 0.87842,-2.54003 1.76742,-5.14618 1.75154,-7.85816 -1.03981,-3.42632 -1.81769,-6.91618 -2.39183,-10.44836 z" id="path157" style="display:inline;opacity:0.272848;fill:#000000;stroke-width:0.264583"/>
    <path fill="#ffffff" d="m 128.25479,239.38441 c 2.56381,-0.44712 5.14085,-0.7964 7.74964,-0.72232 -0.81491,1.07418 -1.55839,2.20663 -2.02141,3.48192 -0.38365,0.58737 0.0556,1.23029 0.30162,1.78065 0.87577,0.65616 1.86531,1.15093 2.81781,1.69333 5.89492,2.18546 12.20523,2.73047 18.36473,3.75973 2.61673,0.28043 5.2414,0.48419 7.85548,0.80433 -0.889,1.80443 -2.18546,3.76502 -1.67481,5.8605 0.36777,0.12967 0.73554,0.38631 1.14829,0.27516 2.37331,-0.37571 4.76515,-0.64291 7.0829,-1.2991 0.2196,0.98427 0.70908,1.94471 0.5715,2.98185 -0.29898,4.58526 -0.48155,9.19163 -0.008,13.77156 0.0106,2.92362 -0.16404,5.86317 -0.65617,8.74975 -0.43921,3.75446 -1.52929,7.38717 -2.54794,11.0146 -0.6932,2.2569 -1.14297,4.60904 -2.29658,6.69396 -1.63777,2.98186 -2.20398,6.37646 -3.43958,9.51971 -0.74084,1.86267 -1.04246,3.85762 -1.64306,5.76527 -0.84403,2.32566 -1.78594,4.61698 -2.6088,6.9506 -0.19843,2.10609 -0.17462,4.22275 -0.045,6.3341 -0.17462,3.34963 -0.51329,6.69663 -0.48154,10.05681 -0.12171,2.16959 0.77523,4.21479 1.09273,6.33678 0.4154,2.64318 1.08744,5.23081 1.7145,7.83169 0.64029,3.04271 1.72773,5.97429 2.12461,9.06989 -1.45521,-0.7964 -2.96598,-1.4949 -4.37621,-2.36535 -1.99231,-1.54255 -3.95288,-3.12476 -6.02986,-4.55086 -1.23825,-0.77785 -1.98437,-2.06901 -2.93952,-3.13002 -1.63512,-1.8071 -3.47927,-3.41842 -5.1091,-5.22288 -0.81492,-1.53458 -1.6854,-3.06652 -2.14048,-4.75456 -0.38629,-1.35731 -0.93133,-2.66967 -1.23825,-4.04283 -0.17198,-2.07433 -0.50535,-4.15925 -0.23548,-6.2362 0.16669,-1.28061 0.17992,-2.57443 0.34131,-3.84969 0.65617,2.10076 1.00807,4.29419 1.69863,6.38704 0.6985,1.33612 1.38906,2.68288 2.14841,3.98724 0.77788,0.97103 1.73038,1.79123 2.56911,2.71728 1.05569,1.19062 2.49767,1.91822 3.75973,2.86017 0.57414,0.45773 1.2991,0.62177 1.9976,0.8096 0.34661,-0.82815 0.80698,-1.60867 1.10067,-2.45534 0.12435,-1.21973 0.16404,-2.45004 0.22489,-3.66977 -0.92868,-3.68562 -2.81252,-7.00616 -4.59316,-10.33195 -0.89427,-2.21985 -1.54781,-4.53496 -2.57704,-6.70457 -0.85196,-1.70124 -1.18269,-3.58508 -1.57163,-5.42922 0.13229,-1.03984 0.082,-2.21986 0.79111,-3.06655 1.37583,-1.88119 2.64054,-3.84701 4.2545,-5.5377 3.02154,-3.47133 5.90814,-7.0988 8.2497,-11.06755 0.81492,-1.55837 1.92352,-2.93158 3.04007,-4.28093 -0.37836,2.51619 -0.80698,5.02708 -1.06892,7.56179 0.93398,-1.26997 1.47637,-2.76489 2.15371,-4.17248 0.70114,-1.60866 1.57427,-3.14851 2.06639,-4.8392 0.54769,-1.84679 1.34144,-3.63538 1.56369,-5.56419 0.17992,-1.32821 0.49213,-2.63789 0.59796,-3.97139 -0.0476,-4.15129 -0.14023,-8.34761 -1.11125,-12.40102 -0.90223,-1.04511 -2.14842,-1.72509 -3.54013,-1.80184 -2.07962,3.32052 -4.70958,6.42673 -5.7441,10.27644 -0.19844,1.33083 -0.9234,2.4765 -1.59808,3.61156 -0.37836,-1.47375 -0.79111,-2.94219 -1.09009,-4.42915 0.0318,-1.35731 0.0556,-2.72518 0.25136,-4.06665 0.84666,-2.08227 1.75683,-4.14334 2.82575,-6.12243 0.67204,-1.24092 1.17739,-2.56384 1.65629,-3.88675 -0.0582,-0.68792 -0.56621,-1.28323 -0.78581,-1.93408 -1.34409,0.13756 -2.68288,0.37568 -3.93436,0.89956 -1.31233,0.56885 -2.75166,0.63235 -4.14602,0.84404 -1.85473,0.22225 -3.64596,0.75671 -5.46364,1.15094 -3.37873,0.65088 -6.27592,2.61408 -9.24719,4.23069 0.86783,-1.22767 1.84679,-2.37067 2.75167,-3.56923 0.96043,-1.47111 2.68287,-2.09285 4.0587,-3.08769 2.9263,-1.7277 5.51657,-3.96346 8.50371,-5.59329 -1.10596,-0.7276 -2.19869,-1.4737 -3.30464,-2.19866 -0.4154,-0.30163 -0.93398,-0.34922 -1.42346,-0.42598 -3.47927,-0.31488 -6.70719,-1.92352 -10.20763,-2.10082 -2.82575,-0.082 -5.6515,-0.1058 -8.47195,-0.28839 -2.05846,-0.1614 -4.11428,0.0979 -6.17009,0.15084 -1.39964,0.0159 -2.75696,0.38097 -4.13279,0.58737 -1.56633,0.17198 -2.87073,1.12977 -4.318,1.66158 1.92088,-1.91561 3.71475,-3.98994 5.91608,-5.59329 2.32305,-1.83888 4.84452,-3.47133 7.59619,-4.59055 0.99748,-0.41536 1.95263,-1.00803 3.05065,-1.11386 z" id="path159" style="display:inline;opacity:0.272848;fill:#000000;stroke-width:0.264583"/>
    <path d="m 255.77072,238.66209 c 2.8919,-0.0741 5.75469,0.34132 8.58573,0.889 1.48958,0.57947 2.93952,1.27 4.39738,1.92882 1.80443,1.08214 3.64331,2.13516 5.26256,3.48982 2.26219,1.62984 4.10636,3.74915 6.06954,5.71238 -1.11125,-0.42071 -2.13516,-1.04248 -3.25435,-1.43671 -4.64079,-1.0795 -9.45356,-1.13242 -14.18698,-0.82285 -2.78077,0.18785 -5.61711,-0.12965 -8.34496,0.55562 -1.70921,0.29633 -3.34698,0.87839 -5.02179,1.30175 -1.17211,0.28043 -2.39713,0.28043 -3.556,0.61648 -1.25677,0.74351 -2.45269,1.59015 -3.65125,2.42358 1.86796,1.00013 3.5851,2.24102 5.29696,3.48718 1.56898,1.09273 3.21204,2.07701 4.81806,3.1168 0.73022,0.48683 1.56898,0.87312 2.08756,1.61395 1.01865,1.34411 2.11138,2.63528 3.09563,4.00844 -2.59557,-1.42346 -5.11705,-3.05855 -7.96925,-3.92906 -2.39184,-0.52388 -4.75192,-1.23031 -7.19138,-1.51077 -1.24883,-0.17994 -2.52942,-0.27517 -3.69887,-0.78584 -1.25148,-0.52387 -2.59027,-0.762 -3.93171,-0.9022 -0.2249,0.65352 -0.72496,1.24883 -0.78846,1.93408 0.56885,1.62983 1.25677,3.21733 2.0955,4.72545 0.79904,1.47376 1.40494,3.04007 2.10873,4.55877 0.51064,0.97899 0.37835,2.11667 0.47889,3.18294 0.29369,2.08227 -0.62441,4.0508 -1.03716,6.05367 -0.49213,-0.91014 -1.12448,-1.77271 -1.39171,-2.78342 -0.8546,-4.21478 -3.7174,-7.56444 -5.94783,-11.11779 -1.38113,0.0688 -2.57705,0.74615 -3.50835,1.73569 -0.70379,2.59292 -0.85728,5.29432 -1.06363,7.96396 0.0582,2.08227 -0.30427,4.18838 0.15346,6.24417 0.31221,1.61134 0.40481,3.27554 0.96041,4.83394 0.69586,2.00556 1.20386,4.08519 2.18811,5.97958 1.00541,1.98967 1.7145,4.14869 2.99508,5.99017 -0.25929,-2.53204 -0.69056,-5.04294 -1.06627,-7.55912 1.16417,1.39435 2.29394,2.83368 3.13796,4.45026 2.65377,4.445 5.969,8.45346 9.39535,12.32167 1.07421,1.31763 1.99231,2.75167 3.01096,4.11425 0.70908,0.84669 0.65352,2.02671 0.7911,3.06654 -0.38629,1.77271 -0.67998,3.59569 -1.49225,5.24137 -0.98425,2.11932 -1.70127,4.34446 -2.50031,6.53786 -1.37319,2.8575 -3.15648,5.54569 -4.08252,8.60425 -0.28046,0.93662 -0.8255,1.85737 -0.63765,2.87337 0.0953,0.95518 0.0609,1.92352 0.1958,2.87867 0.29104,0.84669 0.75141,1.62719 1.10066,2.45533 0.69321,-0.18785 1.42082,-0.34922 1.99761,-0.8096 1.01864,-0.74615 2.11666,-1.38379 3.09033,-2.19075 0.89429,-0.87844 1.73831,-1.80183 2.62734,-2.68287 0.80698,-0.74877 1.19592,-1.80184 1.72773,-2.74108 0.47889,-0.94986 1.11919,-1.8415 1.33085,-2.90248 0.48948,-1.80713 0.85196,-3.64861 1.39965,-5.43719 0.16139,1.3335 0.18256,2.68287 0.35719,4.01899 0.23548,1.85738 -0.0609,3.72007 -0.1958,5.5748 -0.0635,1.02129 -0.50535,1.96847 -0.78845,2.94217 -0.47625,1.37057 -0.77523,2.81252 -1.48167,4.09575 -0.56356,1.00012 -0.89167,2.17487 -1.79123,2.94746 -1.92087,1.96588 -4.0005,3.7888 -5.67531,5.97958 -1.03717,1.45521 -2.68552,2.24896 -4.05077,3.34169 -1.75948,1.23296 -3.27819,2.82842 -5.24404,3.74914 -0.96044,0.49477 -1.9103,1.00804 -2.86809,1.51077 0.37836,-3.04006 1.44198,-5.92137 2.03994,-8.91378 0.48154,-2.29661 1.14565,-4.56142 1.41552,-6.89772 0.26194,-2.13251 0.78317,-4.22804 0.99748,-6.3632 -0.0265,-2.91306 0.0979,-5.82612 0.0238,-8.73919 -0.12964,-2.9792 0.34396,-5.98752 -0.127,-8.94559 -0.81756,-2.17752 -1.65894,-4.34707 -2.47385,-6.52459 -0.63765,-1.89974 -0.91546,-3.90525 -1.64042,-5.77588 -0.91017,-2.3495 -1.53194,-4.79425 -2.34156,-7.17815 -0.45508,-1.10329 -1.01071,-2.16427 -1.50813,-3.24644 -0.94191,-1.81504 -1.28058,-3.85495 -1.90235,-5.78643 -1.67481,-5.55361 -2.99244,-11.25535 -3.19352,-17.07089 -0.3175,-3.16974 0.41275,-6.32884 0.2196,-9.49855 -0.0503,-2.38918 -0.10848,-4.77573 -0.29368,-7.15698 -0.14023,-1.03978 0.3466,-1.99757 0.57414,-2.98185 2.31511,0.64826 4.70694,0.9234 7.07761,1.29646 0.4101,0.11112 0.77787,-0.14288 1.15093,-0.27517 0.51068,-2.09547 -0.78846,-4.05339 -1.67481,-5.86049 3.27025,-0.43656 6.57754,-0.53711 9.82663,-1.11128 5.51391,-0.87045 11.13102,-1.49225 16.39358,-3.45278 0.94985,-0.5424 1.94204,-1.03717 2.81781,-1.69334 0.24077,-0.55036 0.68263,-1.19327 0.30163,-1.78064 -0.46305,-1.27532 -1.20653,-2.40777 -2.02145,-3.48195 z" id="path161" style="display:inline;opacity:0.272848;fill:#000000;stroke-width:0.264583"/>
    <path fill="#ffffff" d="m 188.35489,259.46099 c 0.90488,-0.57415 1.80443,-1.15623 2.70669,-1.73038 0.57414,0.59796 1.29381,1.07424 1.76477,1.76213 0.45773,1.442 0.89429,2.89721 1.29381,4.36033 -0.58737,4.15928 -2.62996,7.91104 -3.74914,11.93271 0.254,2.60617 1.75154,4.82865 2.78606,7.17288 0.55298,0.96044 0.45244,2.10077 0.57679,3.16971 0.0529,1.83089 0.44715,3.65651 0.22225,5.4901 -0.762,-1.02923 -1.1086,-2.30454 -1.92088,-3.29935 -1.09008,-1.32821 -2.10608,-2.72521 -2.9792,-4.20158 -0.82815,-2.70936 -1.62719,-5.43719 -2.32834,-8.18092 0.38894,-2.89457 1.11919,-5.73884 1.65365,-8.6069 -0.22754,-0.54237 -0.99748,-0.73818 -1.44727,-1.12183 -1.70656,0.8255 -3.61421,0.97634 -5.44513,1.35996 1.26207,-1.85473 2.24102,-3.9529 3.95288,-5.45571 0.96044,-0.89432 1.77535,-1.96855 2.91306,-2.65115 z" id="path163" style="display:inline;opacity:0.272848;fill:#000000;stroke-width:0.264583"/>
    <path d="m 200.71358,257.73061 c 1.49225,1.03717 3.2041,1.81243 4.43177,3.19091 1.01335,1.10066 2.24896,2.02406 3.01889,3.3311 0.70115,1.10863 1.43669,2.19604 2.12196,3.31523 -1.83091,-0.38365 -3.74121,-0.53446 -5.44512,-1.35996 -0.48154,0.31223 -0.97632,0.60854 -1.43404,0.95515 0.27781,2.1537 0.91016,4.26508 1.24618,6.41879 0.11113,0.98689 0.6059,2.00027 0.24871,2.98714 -0.71173,2.51884 -1.397,5.0509 -2.18281,7.54592 -0.87313,1.47637 -1.88913,2.87602 -2.97921,4.20423 -0.81227,0.99481 -1.16152,2.27012 -1.92087,3.302 -0.21696,-1.68275 0.127,-3.35759 0.1905,-5.03502 0.0794,-0.95779 0.0979,-1.92352 0.28575,-2.86544 1.03187,-2.64583 2.84165,-5.05883 3.10091,-7.95073 -0.68791,-2.24896 -1.47902,-4.46352 -2.34685,-6.64633 -0.61119,-1.45521 -0.88636,-3.01625 -1.29381,-4.52967 -0.27252,-0.7144 0.0926,-1.41552 0.27781,-2.09285 0.32279,-0.99748 0.56356,-2.02142 0.91546,-3.00831 0.47096,-0.68795 1.18798,-1.1642 1.76477,-1.76216 z" id="path165" style="display:inline;opacity:0.272848;fill:#000000;stroke-width:0.264583"/>
    <path fill="#ffffff" d="m 114.29537,277.20921 c 2.3151,-2.57175 4.27831,-5.42131 6.23094,-8.26823 -0.0423,1.64838 -0.12436,3.29674 -0.27252,4.94245 -0.48154,2.8522 -0.96838,5.75204 -2.25161,8.3767 -0.6006,1.09009 -1.23825,2.15898 -1.83091,3.25435 4.00314,-0.78052 7.77345,-2.36005 11.68135,-3.48718 -1.37054,1.78329 -2.62731,3.64858 -3.5851,5.69119 0.0265,0.51594 0.20373,1.01068 0.30162,1.52135 2.159,-0.36512 4.05871,-1.46579 6.08542,-2.21985 -0.67469,1.23296 -1.53194,2.35744 -2.18017,3.60627 -0.37306,0.94985 -0.72231,1.91029 -1.01864,2.88922 -0.0741,1.41026 -0.21432,2.89192 0.36777,4.22542 0.46831,1.7965 1.65364,3.26496 2.51089,4.88157 1.47373,-0.67469 2.89719,-1.4605 4.38679,-2.10077 1.23032,-0.40481 2.4765,-0.75409 3.72269,-1.10066 -1.02658,3.10091 -2.32833,6.10658 -3.24908,9.24451 -0.61119,2.11667 -1.44727,4.25188 -1.3044,6.49288 0.0476,1.5187 -0.17462,3.07975 0.32279,4.55083 0.96573,3.52692 1.17475,7.17814 1.50284,10.80032 -1.40494,-2.3654 -2.84692,-4.7149 -4.13809,-7.14111 -1.10331,-3.093 -2.6617,-6.03782 -3.32052,-9.27632 -0.21431,-1.81768 -0.41539,-3.63537 -0.46037,-5.46364 -1.48167,-0.35719 -2.94746,-0.77785 -4.43706,-1.09273 -2.40771,-0.3175 -4.84717,-0.38629 -7.22842,-0.9022 -2.286,-0.51068 -4.63286,-0.64826 -6.93473,-1.05569 -2.92365,-1.20917 -5.73616,-2.66703 -8.52751,-4.14602 3.97404,-0.56886 7.97982,-0.0846 11.94063,0.32544 2.40771,0.38102 4.85775,0.20637 7.2734,0.0132 1.31763,-0.0688 2.59556,-0.43128 3.83381,-0.86784 0.51065,-0.54239 0.70644,-1.32027 1.08215,-1.95527 -3.10356,-1.87058 -6.42144,-3.40519 -9.92717,-4.33123 -3.58775,-0.12171 -7.19402,0.18524 -10.76588,-0.28839 -3.48986,-0.23548 -6.985004,0.0846 -10.472214,0.17462 1.79123,-0.85198 3.63008,-1.61663 5.47423,-2.34159 3.725334,-0.70112 7.495634,-1.14297 11.276534,-1.39962 -0.7964,-0.67468 -1.54252,-1.42875 -2.42358,-1.98702 -3.29935,-0.57682 -6.61722,-1.03984 -9.964204,-1.21973 -1.9394,-0.55036 -3.82852,-1.29381 -5.715,-2.00821 1.8071,-0.25135 3.62743,-0.38365 5.44248,-0.57147 4.360334,-0.60061 8.667744,-1.77538 12.604744,-3.77296 1.47637,-1.16684 2.73314,-2.57972 3.9661,-3.99262 z" id="path167" style="display:inline;opacity:0.272848;fill:#000000;stroke-width:0.264583"/>
    <path d="m 271.24885,268.94098 c 2.95275,4.34713 6.08274,8.6572 10.04093,12.15234 2.00555,1.16417 4.25183,1.81769 6.42935,2.58234 3.8312,1.13241 7.82376,1.44197 11.77925,1.87057 -1.37583,0.57415 -2.80193,1.01074 -4.19364,1.53726 -1.66955,0.74877 -3.53748,0.52916 -5.30757,0.77785 -2.07433,0.20902 -4.1275,0.59531 -6.18593,0.91284 -0.87845,0.56356 -1.62719,1.30701 -2.41565,1.98702 2.70934,0.21428 5.42131,0.41804 8.10154,0.88106 1.38642,0.25664 2.85219,0.254 4.14335,0.889 1.48961,0.67736 3.03742,1.22767 4.49792,1.97117 -3.48718,-0.0926 -6.98236,-0.4101 -10.47221,-0.17198 -3.57187,0.47096 -7.17815,0.16404 -10.76592,0.28575 -3.5057,0.92604 -6.82358,2.4633 -9.92717,4.33123 0.3175,0.61913 0.60061,1.26206 0.95515,1.87063 2.794,1.21973 5.92666,1.07154 8.91378,1.17208 4.73075,-0.41008 9.4959,-1.24354 14.2452,-0.55563 -2.4183,1.29117 -4.85249,2.55853 -7.36603,3.65125 -1.69333,0.9366 -3.69358,0.72232 -5.53506,1.098 -2.71727,0.4895 -5.43189,1.00542 -8.1915,1.16946 -2.0611,0.11906 -4.01902,0.82285 -6.01665,1.27526 -0.15346,2.50563 -0.18521,5.07206 -0.99748,7.47448 -0.48418,1.78858 -1.3335,3.44223 -1.98173,5.17261 -0.37838,0.93397 -0.65616,1.91822 -1.16945,2.79402 -1.24355,2.16427 -2.50825,4.32065 -3.81,6.4479 0.30691,-2.64584 0.27252,-5.32606 0.74083,-7.9534 0.33602,-2.19075 0.762,-4.38412 0.62177,-6.61194 0.19844,-3.23586 -0.67998,-6.38704 -1.50813,-9.48002 -0.85989,-2.35479 -1.73566,-4.70165 -2.59291,-7.05644 1.27,0.35983 2.54794,0.70379 3.79412,1.14565 1.43669,0.62971 2.81782,1.38641 4.2254,2.07962 0.56356,-1.05569 1.16417,-2.09283 1.73567,-3.14587 1.2356,-3.00304 1.08214,-6.47964 -0.24607,-9.4271 -0.54504,-1.02129 -1.16152,-2.00028 -1.66423,-3.04006 2.02671,0.74609 3.92113,1.84679 6.07748,2.21456 0.10054,-0.47096 0.23284,-0.92869 0.31221,-1.39436 -0.86519,-2.12195 -2.2225,-3.9952 -3.59304,-5.82083 2.15371,0.635 4.2836,1.34408 6.40292,2.08492 1.71185,0.62441 3.51631,0.93924 5.27843,1.40226 -0.65087,-1.21708 -1.38377,-2.38389 -2.01083,-3.60891 -1.72233,-4.08514 -2.29912,-8.55925 -2.3441,-12.96459 z" id="path169" style="display:inline;opacity:0.272848;fill:#000000;stroke-width:0.264583"/>
    <path fill="#ffffff" d="m 164.55033,365.42132 c 0.0212,-0.7911 0.37835,-1.53456 0.57414,-2.29126 1.68275,1.91822 3.31788,3.93697 5.461,5.36572 1.79388,0.37571 3.62215,0.59531 5.45836,0.635 5.24139,0.16404 10.49073,0.83344 15.48606,2.48444 1.44198,1.09008 2.1299,2.79135 2.72521,4.4397 0.36248,3.56659 0.29104,7.15696 0.13758,10.7368 -0.15875,1.02129 -0.23812,2.07168 -0.53446,3.06387 -1.0107,0.25932 -2.04258,0.43392 -3.05593,0.6853 -1.10599,0.30427 -2.24896,0.0582 -3.37344,0.0502 -1.11654,-0.0873 -2.30452,0.09 -3.34433,-0.42068 -1.40759,-0.62707 -2.8628,-1.1483 -4.25715,-1.80184 -0.97367,-0.68527 -1.88913,-1.46048 -2.77283,-2.25423 -0.95515,-1.16152 -1.76742,-2.43419 -2.68552,-3.62217 1.29116,0.35983 2.60879,0.65352 3.8735,1.10863 1.56897,0.71702 3.1115,1.48696 4.66989,2.22512 0.73819,0.37571 1.58221,0.42333 2.38654,0.56621 1.95263,0.32279 3.91054,0.60854 5.85788,0.96044 0.37041,-1.26736 0.78316,-2.51884 1.143,-3.78616 0.15081,-0.38897 -0.0847,-0.76465 -0.18786,-1.12184 -0.42598,-1.10331 -0.74612,-2.24105 -1.2012,-3.32848 -3.51896,-1.14829 -7.25223,-1.36261 -10.86115,-2.11138 -2.09285,-0.47625 -4.24656,-0.42069 -6.36852,-0.62971 -1.02923,-0.0635 -1.94204,-0.59002 -2.8919,-0.92604 -0.93133,-0.39423 -1.91558,-0.6773 -2.80987,-1.14564 -1.54781,-2.79398 -2.55323,-5.82346 -3.429,-8.88204 z" id="path171" style="display:inline;opacity:0.272848;fill:#000000;stroke-width:0.264583"/>
    <path d="m 221.18968,368.49578 c 2.14313,-1.43137 3.77825,-3.4475 5.461,-5.36572 0.18521,0.90484 0.81756,1.83618 0.44186,2.77018 -0.49478,1.47371 -0.91546,2.97127 -1.42875,4.44233 -0.52653,1.21976 -1.10861,2.42094 -1.68011,3.62482 -0.13758,0.47887 -0.68527,0.54501 -1.07156,0.73819 -1.41288,0.50003 -2.77283,1.14829 -4.20423,1.58485 -2.26748,0.32808 -4.58788,0.17989 -6.83154,0.68527 -3.66184,0.76729 -7.44538,0.97896 -11.01196,2.14048 -0.49477,1.22502 -0.88106,2.49238 -1.34144,3.73327 -0.2196,0.41278 -0.003,0.85725 0.10848,1.27267 0.33602,1.07154 0.66146,2.15107 0.9869,3.23057 2.50031,-0.45773 5.02443,-0.78582 7.52475,-1.25413 1.48431,-0.55033 2.86543,-1.34937 4.31271,-1.99496 1.53987,-0.8387 3.28612,-1.12712 4.953,-1.61396 -0.75142,1.00809 -1.48961,2.02142 -2.21721,3.04536 -0.65088,0.93662 -1.64836,1.53194 -2.48709,2.28071 -0.94985,0.85195 -2.23308,1.12712 -3.36285,1.65893 -1.10596,0.40482 -2.15371,1.10332 -3.37344,1.06363 -1.33614,0.0212 -2.667,0.12171 -4.0005,0.15875 -1.36525,-0.18786 -2.70668,-0.54766 -4.05077,-0.8414 -0.67733,-2.4315 -0.59531,-4.98475 -0.65352,-7.48768 -0.0926,-2.10873 0.10848,-4.21484 0.25665,-6.31296 0.59266,-1.64574 1.27793,-3.34169 2.71991,-4.43442 3.73592,-1.16946 7.60148,-2.01877 11.51996,-2.23311 3.14325,-0.33075 6.33677,-0.16142 9.42975,-0.89167 z" id="path173" style="display:inline;opacity:0.272848;fill:#000000;stroke-width:0.264583"/>
  </g>
</svg>